<svg height="204.8" viewBox="0 0 192 192" width="204.8" xmlns="http://www.w3.org/2000/svg" xmlns:xlink="http://www.w3.org/1999/xlink"><filter id="a" color-interpolation-filters="sRGB"><feFlood flood-opacity=".2" result="flood"/><feComposite in="flood" in2="SourceGraphic" operator="in" result="composite1"/><feGaussianBlur in="composite1" result="blur" stdDeviation="4"/><feOffset dx="0" dy="4" result="offset"/><feComposite in="SourceGraphic" in2="offset" operator="over" result="composite2"/></filter><radialGradient id="b" cx=".560124" cy=".357014" gradientTransform="matrix(.00132321 2.1587518 -2.1815784 .00133718 1.113116 -.392161)" gradientUnits="userSpaceOnUse" r="88"><stop offset="0" stop-color="#fff" stop-opacity=".1"/><stop offset="1" stop-color="#fff" stop-opacity="0"/></radialGradient><circle cx="88" cy="104" fill="#ff5252" r="0"/><circle cx="96" cy="96" fill="#ff7575" filter="url(#a)" r="88"/><path d="m184 96a88 88 0 0 1 -87.87704 87.99991 88 88 0 0 1 -88.1226164-87.75399" fill="#cc4242" filter="url(#a)"/><ellipse cx="96" cy="96" fill="#cd201f" filter="url(#a)" rx="88" ry="87"/><path d="m62.03771 154.84774 17.847497-11.37613.373296-75.40567 45.924707 27.26706-33.232665 19.16292v21.92836l69.034255-41.09128-100.040414-58.794506z" fill="#fff" fill-rule="evenodd" filter="url(#a)"/><path d="m183.70578 103.23093a88 88 0 0 1 -42.68319 68.40249 88 88 0 0 1 -80.476409 4.92984" fill="#fff" fill-rule="evenodd"/><text fill="#cd201f" font-family="sans-serif" font-size="37.499996" letter-spacing="0" transform="matrix(.86357335 -.50422323 .50422323 .86357335 0 0)" word-spacing="0" x="-4.65906" y="208.67332"><tspan fill="#cd201f" font-family="sans-serif" font-size="29.296873" x="-4.65906" y="208.67332">BETA</tspan></text><circle cx="95.978127" cy="96.021866" fill="url(#b)" fill-rule="evenodd" r="88"/></svg>