<svg height="427" viewBox="0 0 407.45833 112.97708" width="1540" xmlns="http://www.w3.org/2000/svg"><g fill-rule="evenodd" transform="scale(.26458333)"><g fill="#6c6c6c"><path d="m1306.2734 427h116.9746l116.752-161.66602v-161.97851z"/><path d="m1072.3535 427h116.9746l308.3672-427h-116.9726z"/><path d="m838.43359 427h116.97266l308.36915-427h-116.9746z"/><path d="m604.51367 427h116.97656l308.36717-427h-116.97654z"/><path d="m370.59375 427h116.97461l308.36719-427h-116.97461z"/><path d="m136.67383 427h116.97461l308.36914-427h-116.97461z"/><path d="m0 292.3418v134.6582h19.726562l308.369138-427h-116.97461z"/><path d="m94.175781 0h-94.175781v130.40625z"/></g><path d="m1423.2266 427h116.7734v-161.69727z" fill="#999"/><path d="m1189.3066 427h116.9746l233.7188-323.63281v-103.36719h-42.3242z" fill="#999"/><path d="m955.38672 427h116.97458l308.3692-427h-116.9766z" fill="#999"/><path d="m721.4668 427h116.97461l308.36909-427h-116.9746z" fill="#999"/><path d="m487.54688 427h116.9746l308.36914-427h-116.97656z" fill="#999"/><path d="m253.62695 427h116.97461l308.36719-427h-116.97461z" fill="#999"/><path d="m19.707031 427h116.972659l308.36914-427h-116.97461z" fill="#999"/><path d="m211.13086 0h-116.97461l-94.15625 130.37695v161.97657z" fill="#999"/></g></svg>