<svg height="427" viewBox="0 0 674.68749 112.97708" width="2550" xmlns="http://www.w3.org/2000/svg"><g fill-rule="evenodd" transform="translate(0 -184.02291)"><g fill="#6c6c6c"><path d="m283.72686 296.99999h30.94953l81.58882-112.97708h-30.949z"/><path d="m221.83555 296.99999h30.94902l81.58933-112.97708h-30.94953z"/><path d="m159.94424 296.99999h30.95005l81.58881-112.97708h-30.95004z"/><path d="m98.052928 296.99999h30.949532l81.58882-112.97708h-30.94953z"/><path d="m36.161617 296.99999h30.949532l81.589331-112.97708h-30.94953z"/><path d="m0 261.37168v35.62831h5.2193195l81.5893335-112.97708h-30.949532z"/><path d="m24.917342 184.02291h-24.917342v34.50332z"/></g><path d="m252.7794 296.99999h30.94952l81.58935-112.97708h-30.95005z" fill="#999"/><path d="m190.88809 296.99999h30.94953l81.58932-112.97708h-30.94953z" fill="#999"/><path d="m128.99678 296.99999h30.94953l81.58933-112.97708h-30.95005z" fill="#999"/><path d="m67.105463 296.99999h30.949532l81.588815-112.97708h-30.94953z" fill="#999"/><path d="m5.2141519 296.99999h30.9490161l81.589332-112.97708h-30.94953z" fill="#999"/><path d="m55.861706 184.02291h-30.949532l-24.912174 34.49557v42.8563z" fill="#999"/><path d="m531.30347 297h30.94953l81.58881-112.97709h-30.949z" fill="#6c6c6c"/><path d="m469.41216 297h30.94902l81.58932-112.97709h-30.94952z" fill="#6c6c6c"/><path d="m407.52085 297h30.95005l81.58881-112.97709h-30.95004z" fill="#6c6c6c"/><path d="m345.62386 297h30.94953l81.58882-112.97709h-30.94953z" fill="#6c6c6c"/><path d="m500.35601 297h30.94952l81.58934-112.97709h-30.95003z" fill="#999"/><path d="m438.4647 297h30.94953l81.58932-112.97709h-30.94953z" fill="#999"/><path d="m376.57339 297h30.94953l81.58933-112.97709h-30.95005z" fill="#999"/><path d="m314.67639 297h30.94953l81.58882-112.97709h-30.94953z" fill="#999"/><path d="m2475.9375 427h74.0625v-102.55469z" fill="#6c6c6c" transform="matrix(.26458333 0 0 .26458333 0 184.02291)"/><path d="m2242.0176 427h116.9765l191.0059-264.48828v-161.97851688z" fill="#6c6c6c" transform="matrix(.26458333 0 0 .26458333 0 184.02291)"/><path d="m2358.9707 427h116.9746l74.0547-102.54297v-161.97656z" fill="#999" transform="matrix(.26458333 0 0 .26458333 0 184.02291)"/><path d="m562.253 297h30.94953l81.58933-112.97709h-30.95005z" fill="#999"/></g></svg>