<svg height="45.658001" viewBox="0 0 12.080347 12.080406" width="45.658001" xmlns="http://www.w3.org/2000/svg"><path d="m6.0768689.5299995c-3.2341126.00055189-5.85589584 2.6218874-5.85700002 5.8559999-.00018224.7096349.12857558 1.4133981.38 2.077.086-.224.184-.444.308-.65.064-.105.13300002-.206.18000002-.32.051001-.1118859.06229-.2378274.032-.357-.022811-.065881-.056623-.1274188-.1-.182-.04-.056-.087-.11-.12400002-.168-.0973187-.1496106-.13809421-.3290228-.115-.506.0249628-.1774484.11915931-.3377983.26200002-.446.1294714-.092188.2862622-.1379925.445-.13.052534.00149.10479.00819.156.02.2053261.054599.3876405.1738048.52.34.165.202.262.457.286.717s-.024.525-.124.766c-.18.432-.52.78-.707 1.208-.152.35-.196.74-.175 1.122.003.035.008.07.01.106.4507334.5770346 1.0056516 1.0644546 1.636 1.4370006-.038078-.316572-.057112-.635146-.057-.954 0-.254.014-.5070006.038-.7570006-.1559054-.101895-.2893089-.2346178-.392-.39-.177-.28-.21-.635-.138-.96.073-.323.245-.618.45-.878.343398-.4301031.7823519-.7742129 1.282-1.005-.014-.02-.03-.04-.04-.056-.1827732-.2976652-.2917986-.6346839-.318-.983-.026-.35.03-.703.052-1.053.017-.245.018-.49.032-.735.017-.285.05-.568.13-.84.03-.1.065-.198.12-.284.065809-.1019387.159529-.1828158.27-.233.1103449-.046895.2319198-.060789.35-.04.1.022.192.072.273.134.082.062.152.138.218.215.1881609.2215513.3461975.4670124.47.73.1633637-.025246.3296363-.025246.493 0 .1237511-.2630161.2817919-.5084837.47-.73.066-.078.136-.153.217-.215.079958-.064114.1732297-.1095538.273-.133.1189329-.024401.2425425-.010394.353.04.1097052.050551.2026866.1313891.268.233.057.086.092.184.12.283.08.272.115.556.132.84.014.244.015.49.032.734.023.35.08.702.052 1.053-.026083.3486523-.1351111.6860228-.318.984-.014.023-.03.044-.046.066.11.126.27.232.406.278.1529159.049547.3164474.056461.473.02.086478-.019618.1687655-.054497.243-.103.07379-.047833.135419-.1122013.18-.188.049414-.096424.078676-.2018999.086-.31.03-.275 0-.553-.024-.83-.015-.178-.028-.36.012-.535.023795-.1205425.082982-.2312563.17-.318.059653-.054775.1317196-.09424.21-.115.078274-.02067.1599513-.025095.24-.013.1733921.025417.3282341.1222381.4270001.267.05299.082963.08965.1752835.108.272.02.097.027.195.032.294.02.343.018.687.008 1.03-.008.302-.025.61-.145.886-.154.353-.4660001.617-.8000001.806-.2264625.1268843-.4675832.2256162-.718.294.2220702.7271828.3333186 1.4836724.33 2.2440006-.0006104.320918-.020647.641504-.06.96 1.7849401-1.051808 2.8815491-2.9682124 2.8840001-5.0400006-.001656-3.235675-2.6263254-5.85720979-5.8620001-5.8549999z" fill="#fff"/></svg>