<svg enable-background="new 0 0 1031 305" height="305" viewBox="0 0 1031 305" width="1031" xmlns="http://www.w3.org/2000/svg" xmlns:xlink="http://www.w3.org/1999/xlink"><clipPath id="a"><path d="m866.923 7.852h36.817v36.818h-36.817z"/></clipPath><path clip-rule="evenodd" d="m954.174 263.181c.002-78.418.004-141.878.004-167.025-9.988.239-19.979.48-29.971.719-.018 28.631-.032 90.285-.047 166.25z" fill="#898989" fill-rule="evenodd"/><path clip-rule="evenodd" d="m533.841 10.056c-3.752.01-7.503.019-11.253.019l-10.416-.009-9.865-.01-19.553-.019c-17.557.047-62.728.037-73.075.019-5.567 0-9.042-.009-9.303-.019l.077 33.092h131.678v1.906z" fill="#898989" fill-rule="evenodd"/><path clip-rule="evenodd" d="m399.973 52.465h79.598v26.655h-79.598z" fill="#898989" fill-rule="evenodd"/><path clip-rule="evenodd" d="m480.128 52.465h71.132v26.655h-71.132z" fill="#898989" fill-rule="evenodd"/><path clip-rule="evenodd" d="m730.246 133.272h33.614v34.684h-33.614z" fill="#898989" fill-rule="evenodd"/><path clip-rule="evenodd" d="m730.246 241.808h33.614v14.741h-33.614z" fill="#898989" fill-rule="evenodd"/><path clip-rule="evenodd" d="m577.224 262.872 9.552-1.045c7.664-1.147 11.759-6.387 11.855-15.167 3.56-.005 7.121-.014 10.682-.021 2.302-.004 4.603-.009 6.903-.014 2.558-.004 5.113-.01 7.671-.015 3.018-.004 5.805.012 8.822.007-.011 4.897-.327 9.792-1.511 14.607-2.071 8.436-6.011 15.808-12.221 21.91-.779.764-1.106.952-2.106 1.997l-1.397 1.129c-3.129 3.066-6.385 4.559-10.243 6.283-5.86 2.62-12.064 3.843-18.492 3.888l-9.895.062z" fill="#898989" fill-rule="evenodd"/><path clip-rule="evenodd" d="m524.211 296.465-19.384.028c-4.896-.013-9.791-.329-14.606-1.512-8.436-2.071-15.809-6.011-21.91-12.221-.764-.778-.952-1.106-1.996-2.105l-1.13-1.398c-3.066-3.128-4.559-6.385-6.283-10.243-2.62-5.86-3.843-12.065-3.888-18.493l-.062-9.895c.024-3.273.063-6.548.067-9.823l-.037-14.108c.072-9.567.012-22.585-.001-32.152l34.646.03c.001 17.528.001 38.51.002 56.04l-.011 9.946c1.146 7.665 6.386 11.759 15.166 11.854l19.85.462z" fill="#898989" fill-rule="evenodd"/><path clip-rule="evenodd" d="m356.931 193.341c.05-11.792.098-34.255.147-46.048 5.718-.016 11.438-.056 17.158-.028 5.581.028 11.161-.286 16.743-.056.009 10.803.012 35.329.039 46.132z" fill="#898989" fill-rule="evenodd"/><path clip-rule="evenodd" d="m90.004 132.199h19.871v33.615h-19.871z" fill="#898989" fill-rule="evenodd"/><path clip-rule="evenodd" d="m153.95 132.199h19.873v33.615h-19.873z" fill="#898989" fill-rule="evenodd"/><path clip-rule="evenodd" d="m161.59 224.75c-.008-2.493-.008-4.977-.016-7.462-.007-2.24-.007-4.48-.016-6.719-.007-3.467-.015-6.935-.015-10.401-.713-.007-1.404-.046-2.063-.116-7.042-.689-11.252-4.602-12.243-11.42v-3.483l.008-6.19h-.177l-32.529.008.007 1.266.023 4.909.007.138.016 3.321c.045 6.252 1.196 12.288 3.667 17.995 1.625 3.75 3.038 6.918 5.93 9.964l1.065 1.365c.983.966 1.159 1.289 1.88 2.048 5.76 6.044 12.709 9.872 20.671 11.889 3.851.974 7.762 1.343 11.675 1.442.698.023 1.404.031 2.102.031-.007-2.939.008-5.654.008-8.585z" fill="#898989" fill-rule="evenodd"/><path clip-rule="evenodd" d="m143.546 185.15 3.917-.003c.891-.092 1.591-.546 1.62-1.451.029-.879.044-1.761.046-2.643l-.014-1.734c.025-1.599.021-.725-.032-2.319-.029-.904-.729-1.358-1.62-1.45l-16.117-.013-5.708.001h-9.745c-.852-.004-1.706.004-2.558.007-.784 0-1.448.508-1.474 1.502-.055 2.214-.074 4.433-.009 6.645.025.904.641 1.359 1.423 1.451l12.27.012h5.273z" fill="#6b6b6b" fill-rule="evenodd"/><path clip-rule="evenodd" d="m442.163 185.218c-3.014.007-5.799-.007-8.813-.007-2.555.007-5.108.007-7.671.015-2.301.007-4.602.007-6.903.016-3.559.007-7.117.016-10.677.023 0 .069-.007.138-.015.199.008.083 0 .162 0 .246-.015.797-.068 1.557-.169 2.286-.874 6.903-4.871 11.037-11.673 12.027h-3.582l-3.008-.008h-55.947l-1.925.016-1.189.015-2.132.015-1.764 33.566v.045l6.988.069h1.964c8.912-.015 17.817-.061 26.73 0l14.114-.039c2.101.008 4.195.023 6.297.039 1.172.016 2.348.023 3.52.031l6.343-.038 3.552-.023c6.428-.046 12.633-1.235 18.493-3.782 3.859-1.68 7.119-3.137 10.248-6.121l1.395-1.097c.998-1.021 1.328-1.197 2.103-1.941 6.214-5.945 10.155-13.116 12.228-21.331.95-3.773 1.342-7.601 1.456-11.436.024-.454.031-.913.039-1.374.007-.076.007-.16.007-.237v-.36c.008-.268.008-.545.008-.813-.01-.001-.01-.001-.017-.001z" fill="#898989" fill-rule="evenodd"/><path clip-rule="evenodd" d="m408.084 186.631c.048-11.869.098-34.471.146-46.34 5.72-.011 11.439-.056 17.159-.028 5.581.028 11.161-.287 16.741-.055.01 10.873.014 35.55.039 46.423z" fill="#898989" fill-rule="evenodd"/><path d="m140.485 44.191h-15.341c-1.688 0-3.068 1.381-3.068 3.068v27.614c0 1.688 1.381 3.068 3.068 3.068h15.341c1.687 0 3.068-1.38 3.068-3.068v-27.614c0-1.687-1.381-3.068-3.068-3.068zm0 29.147h-15.341v-24.545h15.341z" fill="#ac1b22"/><path d="m324.777 143.905c0 4.602-3.896 7.824-8.131 7.824-4.234 0-8.13-3.222-8.13-7.824h-2.608c0 5.231 4.173 9.557 9.204 10.302v5.04h3.068v-5.04c5.032-.729 9.204-5.055 9.204-10.302zm-8.131-13.806c-2.545 0-4.602 2.056-4.602 4.603v1.81h9.196l.008-1.81c0-2.548-2.056-4.603-4.602-4.603zm-4.603 8.184v5.622c0 2.547 2.057 4.602 4.602 4.602 2.546 0 4.587-2.055 4.587-4.602l.007-5.614z" fill="#ac1b22"/><path d="m31.289 147.668v-5.37c0-.843-.69-1.534-1.534-1.534h-18.409c-.844 0-1.534.69-1.534 1.534v15.34c0 .844.69 1.534 1.534 1.534h18.409c.844 0 1.534-.69 1.534-1.534v-5.368l6.137 6.136v-16.875z" fill="#ac1b22"/><path d="m563.239 290.938c1.695 0 3.061-1.381 3.061-3.068l.008-15.341c0-1.688-1.373-3.068-3.068-3.068h-24.545c-1.68 0-3.068 1.381-3.068 3.068v15.341c0 1.688 1.389 3.068 3.068 3.068h-6.137v3.067h36.817v-3.067zm-24.545-18.409h24.545v15.341h-24.545z" fill="#ac1b22"/><path d="m146.372 268.311h-27.613c-1.688 0-3.068 1.381-3.068 3.068v18.408c0 1.688 1.38 3.068 3.068 3.068h10.738v3.068h-3.068v3.068h12.272v-3.068h-3.068v-3.068h10.738c1.688 0 3.068-1.381 3.068-3.068v-18.408c.001-1.688-1.379-3.068-3.067-3.068zm0 21.476h-27.613v-18.408h27.613z" fill="#ac1b22"/><path d="m309.229 7.91c-7.624 0-13.807 6.183-13.807 13.807v10.738c0 2.547 2.056 4.602 4.603 4.602h4.603v-12.272h-6.136v-3.068c0-5.938 4.801-10.738 10.738-10.738s10.738 4.801 10.738 10.738v3.068h-6.137v12.272h6.137v1.534h-10.738v3.068h9.204c2.547 0 4.602-2.055 4.602-4.602v-15.34c-.001-7.624-6.184-13.807-13.807-13.807z" fill="#ac1b22"/><path d="m620.016 50.585v14.236c-.722-.261-1.489-.429-2.301-.429-3.82 0-6.903 3.083-6.903 6.903s3.083 6.903 6.903 6.903c3.543 0 6.443-2.685 6.827-6.136h.076v-16.874h6.136v-4.603z" fill="#ac1b22"/><path clip-rule="evenodd" d="m164.41 200.009h57.872v33.615h-57.872z" fill="#898989" fill-rule="evenodd"/><path clip-rule="evenodd" d="m225.168 203.321-.003-4.043c-.094-.919-.562-1.642-1.49-1.672-.905-.03-1.812-.045-2.718-.048l-1.781.015c-1.642-.025-.745-.021-2.383.033-.929.03-1.396.752-1.491 1.672l-.014 16.634.001 5.89v10.058c-.004.879.005 1.76.008 2.64 0 .81.521 1.496 1.542 1.521 2.276.058 4.556.076 6.829.009.929-.026 1.396-.661 1.491-1.468l.014-12.663-.002-5.443z" fill="#6b6b6b" fill-rule="evenodd"/><path clip-rule="evenodd" d="m167.748 236.046c.848 0 1.534-.662 1.534-1.48v-35.527c0-.818-.687-1.48-1.534-1.48h-6.731c-.848 0-1.534.662-1.534 1.48v35.527c0 .818.687 1.48 1.534 1.48z" fill="#6b6b6b" fill-rule="evenodd"/><path clip-rule="evenodd" d="m113.455 92.619h33.615v87.61h-33.615z" fill="#898989" fill-rule="evenodd"/><path clip-rule="evenodd" d="m143.756 185.291 4.043-.003c.919-.095 1.641-.562 1.672-1.491.03-.905.045-1.811.048-2.717l-.016-1.782c.026-1.642.021-.744-.033-2.383-.031-.929-.752-1.396-1.672-1.49l-16.634-.014-5.891.001h-10.057c-.879-.004-1.76.003-2.641.007-.809 0-1.495.522-1.52 1.544-.058 2.274-.076 4.555-.01 6.829.027.928.661 1.396 1.469 1.49l12.663.013h5.442z" fill="#6b6b6b" fill-rule="evenodd"/><path clip-rule="evenodd" d="m111.032 97.315c0 .849.662 1.534 1.48 1.534h35.527c.818 0 1.48-.686 1.48-1.534v-6.731c0-.848-.663-1.534-1.48-1.534h-35.527c-.818 0-1.48.686-1.48 1.534z" fill="#6b6b6b" fill-rule="evenodd"/><path clip-rule="evenodd" d="m272.721 200.009h57.872v33.615h-57.872z" fill="#898989" fill-rule="evenodd"/><path clip-rule="evenodd" d="m459.101 89.562h91.236v33.615h-91.236z" fill="#898989" fill-rule="evenodd"/><path clip-rule="evenodd" d="m331.782 200.009h57.872v33.615h-57.872z" fill="#898989" fill-rule="evenodd"/><path clip-rule="evenodd" d="m335.653 203.321-.003-4.043c-.095-.919-.562-1.642-1.491-1.672-.905-.03-1.81-.045-2.716-.048l-1.783.015c-1.642-.025-.743-.021-2.382.033-.929.03-1.396.752-1.491 1.672l-.013 16.634.001 5.89v10.058c-.004.879.003 1.76.006 2.64 0 .81.522 1.496 1.544 1.521 2.274.058 4.554.076 6.829.009.929-.026 1.396-.661 1.491-1.468l.012-12.663v-5.443z" fill="#6b6b6b" fill-rule="evenodd"/><path clip-rule="evenodd" d="m392.661 203.832-.003-4.042c-.094-.919-.562-1.641-1.49-1.671-.905-.03-1.812-.045-2.718-.048l-1.781.015c-1.642-.025-.745-.021-2.383.034-.929.03-1.396.752-1.491 1.671l-.014 16.635.001 5.89v10.057c-.004.879.005 1.76.008 2.641 0 .809.521 1.495 1.543 1.521 2.276.057 4.556.075 6.828.01.929-.027 1.396-.662 1.491-1.469l.013-12.663-.001-5.442z" fill="#6b6b6b" fill-rule="evenodd"/><path clip-rule="evenodd" d="m438.551 188.003 4.042-.003c.92-.094 1.643-.562 1.672-1.491.03-.904.045-1.81.048-2.716l-.015-1.782c.025-1.642.021-.744-.033-2.382-.029-.929-.752-1.396-1.672-1.491l-16.633-.014-5.892.001h-10.057c-.879-.004-1.76.003-2.641.006-.809 0-1.496.522-1.521 1.544-.057 2.275-.075 4.555-.008 6.829.026.929.66 1.396 1.468 1.491l12.663.013 5.443-.001z" fill="#6b6b6b" fill-rule="evenodd"/><path clip-rule="evenodd" d="m280.407 236.046c.848 0 1.534-.662 1.534-1.48v-35.527c0-.818-.686-1.48-1.534-1.48h-6.731c-.848 0-1.534.662-1.534 1.48v35.527c0 .818.686 1.48 1.534 1.48z" fill="#6b6b6b" fill-rule="evenodd"/><path clip-rule="evenodd" d="m280.22 131.541c-.906 0-1.819.016-2.724.039-3.988.115-7.962.514-11.882 1.473-8.438 2.071-15.808 6.013-21.914 12.219-.767.782-.951 1.104-1.994 2.109l-1.135 1.396c-3.061 3.129-4.557 6.382-6.283 10.24-2.616 5.86-3.843 12.065-3.889 18.493l-.007.89-.054 9.004c0 .285.008.575.008.86.023 2.991.062 5.974.062 8.966l-.039 14.106c.077 9.564.016 19.137 0 28.702l.008.744.061 9.12c-.007.253-.015.499-.031.744-.476 8.813-4.933 13.085-14.244 13.085-.697 0-1.373.046-2.017.146-3.015.437-5.492 1.833-7.486 3.713-.89.844-1.68 1.787-2.377 2.784-2.815 4.012-4.097 8.913-4.089 11.927.007 3.329.514 8.254 4.089 11.651.659.637 1.433 1.221 2.331 1.719 1.903 1.089 4.357 1.841 7.54 2.07.66.046 1.358.069 2.087.069 10.348-.106 20.28-1.956 29.239-7.44 10.977-6.712 16.86-16.759 18.946-29.269.599-3.583.683-7.348.652-10.463-.023-2.224-.107-4.119-.1-5.376l.039-4.487.007-.767v-52.589l-.015-9.028v-.92c1.028-6.85 5.323-10.846 12.487-11.682.852-.1 1.749-.161 2.685-.169.008-3.559.015-7.125.023-10.685 0-2.301.008-4.602.008-6.903.008-2.554.015-5.117.015-7.67.008-3.015-.007-5.807-.007-8.821z" fill="#898989" fill-rule="evenodd"/><path clip-rule="evenodd" d="m206.665 263.731c-2.38 0-3.987.056-5.979.066-8.587.044-17.172.018-25.758.017.024 11.296.05 22.591.076 33.888 10.532.063 21.067.128 31.6.192z" fill="#898989" fill-rule="evenodd"/><path clip-rule="evenodd" d="m204.283 267.068.003-4.042c.094-.919.562-1.641 1.49-1.672.905-.03 1.811-.045 2.717-.048l1.782.015c1.642-.025.744-.021 2.383.033.929.031 1.396.753 1.491 1.672l.014 16.634-.002 5.891v10.057c.004.88-.003 1.761-.006 2.641 0 .81-.522 1.495-1.544 1.521-2.275.058-4.555.076-6.828.01-.929-.027-1.396-.661-1.491-1.469l-.013-12.663.001-5.442z" fill="#6b6b6b" fill-rule="evenodd"/><path clip-rule="evenodd" d="m162.481 267.068.004-4.042c.121-.919.722-1.641 1.915-1.672 1.163-.03 2.326-.045 3.49-.048l2.289.015c2.109-.025.955-.021 3.061.033 1.194.031 1.793.753 1.915 1.672l.018 16.634-.001 5.891v10.057c.005.88-.005 1.761-.009 2.641 0 .81-.67 1.495-1.982 1.521-2.923.058-5.852.076-8.772.01-1.192-.027-1.793-.661-1.915-1.469l-.017-12.663.002-5.442z" fill="#6b6b6b" fill-rule="evenodd"/><path clip-rule="evenodd" d="m279.031 167.524c-.847 0-1.536-.663-1.536-1.48v-35.527c0-.817.689-1.479 1.536-1.479h6.732c.846 0 1.534.662 1.534 1.479v35.527c0 .818-.688 1.48-1.534 1.48z" fill="#6b6b6b" fill-rule="evenodd"/><path clip-rule="evenodd" d="m234.204 188.263-4.042-.003c-.919-.095-1.641-.562-1.672-1.491-.03-.905-.045-1.812-.048-2.718l.016-1.781c-.025-1.642-.021-.744.033-2.383.031-.929.753-1.396 1.672-1.491l16.635-.013 5.892.001h10.059c.879-.004 1.76.004 2.641.007.809 0 1.494.521 1.52 1.543.059 2.276.077 4.556.011 6.828-.027.929-.661 1.396-1.469 1.491l-12.666.014-5.444-.001z" fill="#6b6b6b" fill-rule="evenodd"/><path clip-rule="evenodd" d="m234.204 250.648-4.042-.003c-.919-.094-1.641-.562-1.672-1.49-.03-.905-.045-1.812-.048-2.718l.016-1.781c-.025-1.642-.021-.744.033-2.383.031-.929.753-1.396 1.672-1.491l16.635-.014 5.892.002h10.059c.879-.005 1.76.004 2.641.007.809 0 1.494.521 1.52 1.543.059 2.276.077 4.556.011 6.829-.027.928-.661 1.396-1.469 1.491l-12.666.013-5.444-.001z" fill="#6b6b6b" fill-rule="evenodd"/><path clip-rule="evenodd" d="m219.372 89.311c-.024-7.739.018-15.482.03-23.22l-.007-.744-.062-9.119c.007-.253.015-.5.031-.744.476-8.813 4.932-13.085 14.244-13.085.697 0 1.373-.046 2.017-.146 3.014-.438 5.492-1.833 7.486-3.713.89-.843 1.681-1.788 2.378-2.784 2.815-4.011 4.096-8.913 4.088-11.927-.007-3.329-.514-8.253-4.088-11.651-.659-.637-1.435-1.22-2.332-1.718-1.902-1.089-4.356-1.841-7.54-2.071-.659-.046-1.357-.069-2.086-.069-10.348.107-20.28 1.956-29.24 7.44-10.976 6.711-16.859 16.76-18.945 29.27-.599 3.583-.684 7.348-.652 10.462.023 2.224.107 4.119.099 5.377l-.038 4.487-.007.767v23.189" fill="#898989" fill-rule="evenodd"/><path clip-rule="evenodd" d="m243.107 42.398c2.38 0 3.987-.056 5.979-.067 8.586-.044 17.172-.017 25.758-.017-.025-11.295-.05-22.591-.076-33.888-10.533-.064-21.067-.128-31.601-.193z" fill="#898989" fill-rule="evenodd"/><path clip-rule="evenodd" d="m219.416 118.881.007-.891.054-9.004c0-.284-.007-.575-.007-.859-.022-2.991-.061-5.975-.061-8.966l.028-10.327-34.644-1.543v21.68l.015 9.028v.92c0 8.409-2.074 13.276-12.486 13.276v33.664c-.001 0 47.094 1.829 47.094-46.978z" fill="#898989" fill-rule="evenodd"/><path clip-rule="evenodd" d="m245.49 39.061-.003 4.042c-.095.919-.562 1.641-1.491 1.672-.905.03-1.81.045-2.717.048l-1.782-.015c-1.642.025-.744.021-2.383-.033-.929-.031-1.396-.753-1.49-1.672l-.014-16.634.001-5.891v-10.057c-.004-.88.004-1.76.007-2.641 0-.809.522-1.495 1.544-1.521 2.275-.058 4.555-.076 6.829-.01.929.027 1.396.662 1.49 1.469l.013 12.663v5.443z" fill="#6b6b6b" fill-rule="evenodd"/><path clip-rule="evenodd" d="m287.292 39.061-.004 4.042c-.121.919-.722 1.641-1.915 1.672-1.162.03-2.326.045-3.491.048l-2.289-.015c-2.108.025-.955.021-3.061-.033-1.193-.031-1.793-.753-1.915-1.672l-.017-16.634.001-5.891v-10.057c-.005-.88.005-1.76.009-2.641 0-.809.67-1.495 1.983-1.521 2.922-.058 5.851-.076 8.771-.01 1.193.027 1.793.662 1.915 1.469l.016 12.663-.001 5.443z" fill="#6b6b6b" fill-rule="evenodd"/><path clip-rule="evenodd" d="m159.816 129.011c.846 0 1.536.662 1.536 1.48v35.526c0 .818-.689 1.48-1.536 1.48h-6.732c-.846 0-1.534-.662-1.534-1.48v-35.526c0-.818.688-1.48 1.534-1.48z" fill="#6b6b6b" fill-rule="evenodd"/><path clip-rule="evenodd" d="m215.569 110.771 4.042.002c.919.095 1.642.562 1.672 1.491.03.905.045 1.812.048 2.718l-.015 1.781c.025 1.642.021.745-.033 2.383-.03.929-.752 1.396-1.672 1.491l-16.635.014-5.892-.001h-10.059c-.879.004-1.76-.005-2.641-.008-.809 0-1.495-.521-1.52-1.542-.058-2.276-.077-4.556-.01-6.829.027-.929.662-1.396 1.469-1.491l12.665-.014 5.444.002z" fill="#6b6b6b" fill-rule="evenodd"/><path clip-rule="evenodd" d="m215.569 55.481 4.042.003c.919.094 1.642.562 1.672 1.491.03.905.045 1.811.048 2.717l-.015 1.781c.025 1.642.021.745-.033 2.384-.03.928-.752 1.396-1.672 1.491l-16.635.013-5.892-.001h-10.059c-.879.004-1.76-.004-2.641-.007-.809 0-1.495-.521-1.52-1.543-.058-2.275-.077-4.556-.01-6.828.027-.929.662-1.396 1.469-1.491l12.665-.014 5.444.002z" fill="#6b6b6b" fill-rule="evenodd"/><path clip-rule="evenodd" d="m416.337 268.135c-.698-1.005-1.487-1.949-2.385-2.785-1.986-1.895-4.465-3.283-7.479-3.72-.645-.1-1.32-.146-2.018-.146-9.32 0-13.768-4.272-14.244-13.086-.016-.246-.023-.491-.03-.744l-33.528-5.707-1.004 1.066c.007 1.258-.078 3.152-.1 5.376-.039 3.114.046 6.88.645 10.462 2.086 12.511 7.97 22.559 18.945 29.271 8.96 5.484 18.893 7.333 29.24 7.44.728 0 1.426-.023 2.087-.069 3.167-.229 5.621-.974 7.516-2.056.904-.506 1.679-1.089 2.348-1.727 3.582-3.397 4.088-8.321 4.095-11.65.008-3.012-1.273-7.914-4.088-11.925z" fill="#898989" fill-rule="evenodd"/><path clip-rule="evenodd" d="m413.954 261.486c1.234 0 2.066.056 3.101.067 4.452.044 14.91.017 19.363.017-.012 11.296-.025 22.592-.039 33.888-5.462.063-16.932.128-22.394.192z" fill="#898989" fill-rule="evenodd"/><path clip-rule="evenodd" d="m416.335 264.824-.003-4.043c-.094-.918-.562-1.641-1.49-1.672-.904-.029-1.81-.045-2.716-.048l-1.782.015c-1.643-.026-.744-.021-2.383.033-.929.031-1.396.753-1.49 1.672l-.014 16.635.002 5.89v10.058c-.005.879.002 1.76.005 2.64 0 .81.523 1.495 1.544 1.521 2.274.058 4.555.076 6.828.01.93-.026 1.396-.661 1.491-1.469l.012-12.663v-5.442z" fill="#6b6b6b" fill-rule="evenodd"/><path clip-rule="evenodd" d="m446.819 264.824-.003-4.043c-.121-.918-.723-1.641-1.915-1.672-1.162-.029-2.326-.045-3.49-.048l-2.289.015c-2.109-.026-.956-.021-3.061.033-1.194.031-1.794.753-1.915 1.672l-.018 16.635.001 5.89v10.058c-.004.879.006 1.76.01 2.64 0 .81.671 1.495 1.982 1.521 2.923.058 5.853.076 8.772.01 1.192-.026 1.793-.661 1.914-1.469l.017-12.663-.002-5.442z" fill="#6b6b6b" fill-rule="evenodd"/><path clip-rule="evenodd" d="m386.416 248.403 4.042-.003c.92-.094 1.642-.562 1.672-1.491.03-.905.045-1.811.048-2.718l-.015-1.781c.025-1.642.021-.745-.033-2.384-.03-.929-.752-1.396-1.672-1.491l-16.633-.014-5.891.002h-10.057c-.88-.005-1.761.004-2.641.007-.81 0-1.495.521-1.521 1.543-.058 2.275-.076 4.556-.011 6.828.027.929.663 1.396 1.47 1.491l12.664.013 5.442-.001z" fill="#6b6b6b" fill-rule="evenodd"/><path d="m384.083 28.789c-6.711-10.976-16.759-16.851-29.27-18.945-3.582-.599-7.348-.675-10.461-.645-2.225.023-4.12.107-5.377.1l-2.276.509-1.029 2.058 7.945 31.964c.253.008.499.016.745.031 8.813.475 13.086 4.931 13.086 14.244 0 .698.045 1.365.145 2.017.43 3.015 1.833 5.499 3.728 7.494.836.89 1.772 1.68 2.77 2.37 4.011 2.815 8.92 4.096 11.934 4.088 3.329-.007 8.253-.514 11.652-4.088.635-.66 1.21-1.434 1.709-2.324 1.09-1.902 1.841-4.364 2.072-7.547.045-.661.069-1.35.069-2.079-.109-10.355-1.958-20.281-7.442-29.247zm-50.333 15.111.745-.008 9.119-.061" fill="#898989"/><path clip-rule="evenodd" d="m357.443 67.606c0 2.38.057 3.987.067 5.979.043 8.586.017 60.098.017 68.684 11.295-.025 22.591-.05 33.889-.076.063-10.532.127-63.993.191-74.526z" fill="#898989" fill-rule="evenodd"/><path clip-rule="evenodd" d="m360.783 69.989-4.043-.003c-.92-.094-1.642-.562-1.672-1.491-.03-.904-.045-1.81-.048-2.716l.016-1.782c-.026-1.642-.021-.744.033-2.382.03-.929.752-1.396 1.672-1.491l16.635-.014 5.891.001h10.057c.879-.004 1.76.003 2.64.006.809 0 1.495.522 1.521 1.544.059 2.275.077 4.555.01 6.829-.027.929-.662 1.396-1.47 1.491l-12.662.013-5.443-.001z" fill="#6b6b6b" fill-rule="evenodd"/><path clip-rule="evenodd" d="m360.783 154.716-4.043-.003c-.92-.121-1.642-.722-1.672-1.915-.03-1.163-.045-2.326-.048-3.491l.016-2.289c-.026-2.108-.021-.955.033-3.061.03-1.193.752-1.793 1.672-1.915l16.635-.018 5.891.001h10.057c.879-.005 1.76.005 2.64.009.809 0 1.495.67 1.521 1.982.059 2.923.077 5.852.01 8.772-.027 1.192-.662 1.793-1.47 1.915l-12.662.017-5.443-.001z" fill="#6b6b6b" fill-rule="evenodd"/><path clip-rule="evenodd" d="m344.36 40.068-.003 4.042c-.094.919-.562 1.642-1.49 1.672-.905.03-1.811.045-2.718.048l-1.781-.015c-1.642.025-.745.021-2.384-.033-.929-.03-1.396-.752-1.491-1.672l-.014-16.634.001-5.89v-10.057c-.004-.88.005-1.761.008-2.641 0-.809.521-1.495 1.543-1.521 2.276-.058 4.556-.075 6.829-.009.929.027 1.396.661 1.491 1.469l.013 12.663-.001 5.442z" fill="#6b6b6b" fill-rule="evenodd"/><path clip-rule="evenodd" d="m115.071 5.808c-.002 8.166-.005 14.776-.005 17.394 11.296-.024 22.592-.05 33.888-.075.019-2.981.037-9.4.054-17.312z" fill="#898989" fill-rule="evenodd"/><path clip-rule="evenodd" d="m118.321 35.648-4.042-.002c-.92-.122-1.642-.722-1.672-1.915-.029-1.163-.044-2.326-.047-3.491l.015-2.29c-.025-2.109-.021-.955.033-3.061.03-1.193.752-1.793 1.672-1.915l16.635-.018 5.89.002h10.057c.879-.005 1.76.005 2.64.009.809 0 1.495.67 1.521 1.983.058 2.923.076 5.851.01 8.772-.027 1.192-.661 1.793-1.469 1.915l-12.663.016-5.442-.001z" fill="#6b6b6b" fill-rule="evenodd"/><path clip-rule="evenodd" d="m118.321 18.662-4.042-.003c-.92-.122-1.642-.722-1.672-1.915-.029-1.163-.044-2.327-.047-3.491l.015-2.29c-.025-2.108-.021-.955.033-3.061.03-1.193.752-1.793 1.672-1.915l16.635-.017 5.89.001h10.057c.879-.005 1.76.005 2.64.009.809 0 1.495.671 1.521 1.983.058 2.923.076 5.851.01 8.771-.027 1.192-.661 1.793-1.469 1.915l-12.663.017-5.442-.001z" fill="#6b6b6b" fill-rule="evenodd"/><path clip-rule="evenodd" d="m179.345 51.075c-5.468-.002-9.894-.005-11.647-.005.017 10.48.034 20.96.05 31.441 1.997.017 6.295.034 11.593.05z" fill="#898989" fill-rule="evenodd"/><path clip-rule="evenodd" d="m155.25 54.09.003-3.751c.121-.854.722-1.523 1.915-1.551 1.163-.028 2.326-.042 3.49-.044l2.289.014c2.109-.024.955-.019 3.061.031 1.194.028 1.793.698 1.915 1.551l.017 15.433-.001 5.465v9.331c.005.816-.005 1.633-.009 2.45 0 .75-.67 1.388-1.982 1.411-2.923.054-5.852.07-8.771.009-1.192-.025-1.793-.613-1.915-1.363l-.017-11.748.001-5.05z" fill="#6b6b6b" fill-rule="evenodd"/><path clip-rule="evenodd" d="m225.812 82.146c31.155.001 56.372.004 66.362.004-.095-10.48-.193-20.96-.289-31.44-11.375-.017-35.868-.034-66.053-.05z" fill="#898989" fill-rule="evenodd"/><path clip-rule="evenodd" d="m299.506 79.13-.003 3.75c-.121.853-.722 1.523-1.915 1.551-1.163.028-2.326.042-3.491.045l-2.289-.014c-2.108.024-.955.02-3.061-.031-1.193-.028-1.793-.698-1.915-1.551l-.017-15.434.001-5.465v-9.331c-.005-.816.006-1.633.009-2.45 0-.75.67-1.387 1.983-1.411 2.923-.053 5.852-.07 8.771-.009 1.192.026 1.793.614 1.915 1.363l.017 11.749-.002 5.049z" fill="#6b6b6b" fill-rule="evenodd"/><path clip-rule="evenodd" d="m602.998 125.666c.048-8.845.096-25.687.145-34.532 5.721-.008 11.44-.042 17.16-.02 5.58.02 11.16-.214 16.741-.041.009 8.103.014 26.491.038 34.593z" fill="#898989" fill-rule="evenodd"/><path clip-rule="evenodd" d="m633.467 126.687 4.043-.002c.918-.07 1.641-.418 1.672-1.111.029-.674.044-1.349.048-2.023l-.015-1.329c.024-1.223.021-.553-.033-1.774-.031-.692-.754-1.04-1.672-1.111l-16.636-.01-5.89.001h-10.058c-.879-.003-1.76.002-2.64.005-.81 0-1.495.389-1.52 1.15-.06 1.694-.077 3.394-.012 5.088.027.692.662 1.041 1.47 1.111l12.662.009h5.443z" fill="#6b6b6b" fill-rule="evenodd"/><path clip-rule="evenodd" d="m633.43 96.933 4.044-.003c.918-.09 1.64-.538 1.672-1.427.029-.866.044-1.732.048-2.602l-.015-1.705c.024-1.571.021-.711-.033-2.281-.032-.889-.754-1.337-1.672-1.427l-16.635-.012-5.892.001h-10.056c-.878-.005-1.76.003-2.641.007-.809 0-1.495.499-1.521 1.477-.057 2.179-.074 4.361-.009 6.538.027.888.661 1.336 1.468 1.427l12.662.012 5.443-.001z" fill="#6b6b6b" fill-rule="evenodd"/><path clip-rule="evenodd" d="m161.754 172.229h61.179v19.646h-61.179z" fill="#898989" fill-rule="evenodd"/><path clip-rule="evenodd" d="m272.239 172.229h76.661v19.646h-76.661z" fill="#898989" fill-rule="evenodd"/><path clip-rule="evenodd" d="m157.538 171.055c-.847 0-1.534.384-1.534.857v20.587c0 .474.688.857 1.534.857h6.732c.847 0 1.534-.383 1.534-.857v-20.587c0-.473-.688-.857-1.534-.857z" fill="#6b6b6b" fill-rule="evenodd"/><path clip-rule="evenodd" d="m217.427 171.055c-.634 0-1.151.384-1.151.857v20.587c0 .474.517.857 1.151.857h5.049c.635 0 1.15-.383 1.15-.857v-20.587c0-.473-.515-.857-1.15-.857z" fill="#6b6b6b" fill-rule="evenodd"/><path clip-rule="evenodd" d="m61.015 11.691h39.778v19.646h-39.778z" fill="#898989" fill-rule="evenodd"/><path clip-rule="evenodd" d="m97.972 10.519c-.635 0-1.151.383-1.151.857v20.587c0 .473.516.857 1.151.857h5.049c.635 0 1.15-.384 1.15-.857v-20.588c0-.474-.516-.857-1.15-.857h-5.049z" fill="#6b6b6b" fill-rule="evenodd"/><path clip-rule="evenodd" d="m272.376 171.055c-.635 0-1.15.384-1.15.857v20.587c0 .474.516.857 1.15.857h5.05c.634 0 1.15-.383 1.15-.857v-20.587c0-.473-.517-.857-1.15-.857z" fill="#6b6b6b" fill-rule="evenodd"/><path clip-rule="evenodd" d="m346.264 171.055c-.633 0-1.15.384-1.15.857v20.587c0 .474.517.857 1.15.857h5.05c.635 0 1.15-.383 1.15-.857v-20.587c0-.473-.515-.857-1.15-.857z" fill="#6b6b6b" fill-rule="evenodd"/><path clip-rule="evenodd" d="m803.438 194.875c.048-12.185.098-35.393.146-47.577 5.72-.016 11.439-.058 17.159-.03 5.58.03 11.161-.294 16.742-.057.01 11.161.013 36.5.038 47.663h-34.085z" fill="#898989" fill-rule="evenodd"/><path clip-rule="evenodd" d="m536.513 132.199h19.105v33.615h-19.105z" fill="#898989" fill-rule="evenodd"/><path clip-rule="evenodd" d="m608.096 224.75c0-2.493-.008-4.977-.015-7.462 0-2.24-.009-4.48-.009-6.719-.009-3.467-.016-6.935-.023-10.401-.713-.007-1.396-.046-2.055-.116-7.042-.682-11.261-4.602-12.25-11.42l.009-3.344v-.139l.007-6.19h-.184l-32.53.008.008 1.266.029 4.909v.138l.023 3.321c.038 6.252 1.197 12.288 3.666 17.995 1.628 3.75 3.039 6.918 5.93 9.964l1.06 1.365c.988.966 1.166 1.289 1.887 2.048 5.753 6.044 12.709 9.872 20.663 11.889 3.858.974 7.763 1.343 11.683 1.442.698.023 1.396.031 2.094.031-.001-2.939.015-5.654.007-8.585z" fill="#898989" fill-rule="evenodd"/><path clip-rule="evenodd" d="m590.057 185.15 3.916-.003c.891-.092 1.592-.546 1.621-1.451.028-.879.043-1.761.046-2.643l-.015-1.734c.025-1.599.021-.725-.031-2.319-.029-.904-.73-1.358-1.621-1.45l-16.117-.013-5.707.001h-9.744c-.853-.004-1.706.004-2.558.007-.785 0-1.449.508-1.476 1.502-.055 2.214-.073 4.433-.009 6.645.026.904.642 1.359 1.424 1.451l12.27.012h5.273z" fill="#6b6b6b" fill-rule="evenodd"/><path d="m800.667 282.762c-.246-.223-.499-.437-.744-.652-2.562 1.519-3.159 5.224-.246 7.249.277-.2.553-.399.828-.599-2.047-1.787-2.063-4.196.162-5.998zm-4.388 2.876c.062-1.71.959-3.16 2.576-4.356-.376-.307-.713-.583-1.058-.867-4.541 3.253-3.573 8.308-.336 10.479.351-.238.705-.483 1.096-.76-1.565-1.289-2.347-2.778-2.278-4.496zm.43-6.106c-.375-.307-.752-.606-1.12-.912-5.599 3.941-5.284 10.4-.544 13.975.398-.284.797-.56 1.188-.843-4.349-3.529-4.049-8.937.476-12.22zm33.742-3.697c.145-1.68.191-3.359-.444-4.978-1.136-2.923-3.269-4.886-6.038-6.19-3.397-1.595-6.987-1.894-10.646-1.357-3.093.46-5.217 2.224-6.168 5.216-.359 1.12-.498 2.309-.69 3.476-.099.613.077 1.326-.191 1.824-.46.844-.254 1.488.191 2.171.271.422.322.852.14 1.312-.154.367-.285.767-.483 1.111-.284.515-.63.981-.944 1.474-.536.844-.275 1.587.669 1.895.184.061.365.138.551.198.313.107.461.322.399.652-.046.261-.086.521-.185.768-.27.636-.184.89.475 1.135.576.215 2.232.354 2.815.552 0 .031 0 .069.008.1-.551.062-2.171.17-2.729.215-.423.039-.514.27-.36.614.083.185.237.345.391.482.314.277.459.599.375 1.029-.084.398-.152.805-.184 1.212-.062.689.153 1.065.806 1.318.413.162.844.276 1.281.33 1.082.153 2.186.23 3.267.399.898.138 1.035.253 1.035 1.165.008 1.488-.062 2.969-.161 4.449-.053.767-.236 1.519-.367 2.339 4.718-1.211 9.39-2.4 14.114-3.604-.078-.223-.132-.406-.191-.583-.264-.774-.568-1.526-.768-2.316-.684-2.631-.845-5.146.827-7.616 1.77-2.633 2.929-5.578 3.205-8.792z" fill="#ac1b22"/><path clip-rule="evenodd" d="m910.414 185.218c-3.015.007-5.799-.007-8.812-.007-2.555.007-5.116.007-7.671.015-2.302.007-4.603.007-6.903.016-3.56.007-7.119.016-10.685.023 0 .007 0 .007-.01.015.01.008.01.008 0 .016.01.008.01.015 0 .024.01.007.01.007 0 .015.01.008.01.008 0 .015v.007c.01.009.01.009 0 .016v.008c.01.008.01.008 0 .015v.007c.01.007.01.007 0 .016-.007.897-.067 1.757-.174 2.577-.867 6.903-4.863 11.037-11.668 12.027h-3.582l-6.364-.008h-52.589l-5.254.045-1.758 33.566v.045l6.979.069c9.573-.007 19.138-.069 28.703 0l14.105-.039c2.102.008 4.204.023 6.306.039 1.174.016 2.346.023 3.521.031l6.342-.038 3.553-.023c6.427-.046 12.632-1.235 18.492-3.782 3.857-1.68 7.109-3.137 10.239-6.121l1.404-1.097c.998-1.021 1.328-1.197 2.102-1.941 6.213-5.945 10.149-13.116 12.219-21.331.959-3.773 1.351-7.601 1.458-11.436.022-.454.029-.913.038-1.374.008-.344.008-.682.008-1.027v-.008c.008-.007.008-.007 0-.015.008-.008.008-.008 0-.016v-.007c.008-.009.008-.023 0-.031v-.007c.008-.008.008-.008 0-.016.008-.008.008-.008 0-.016.008-.015.008-.03 0-.046.008-.007.008-.007 0-.015.008-.016.008-.03 0-.045.008-.015.008-.024 0-.039.008-.039.008-.077.008-.123h-.007z" fill="#898989" fill-rule="evenodd"/><path clip-rule="evenodd" d="m876.332 186.631c.048-11.869.098-34.471.146-46.34 5.72-.011 11.439-.056 17.159-.028 5.581.028 11.161-.287 16.741-.055.01 10.873.014 35.55.04 46.423z" fill="#898989" fill-rule="evenodd"/><path d="m584.824 46.492h-15.341c-1.688 0-3.068 1.381-3.068 3.068v27.614c0 1.687 1.38 3.068 3.068 3.068h15.341c1.687 0 3.068-1.381 3.068-3.068v-27.614c.001-1.686-1.381-3.068-3.068-3.068zm0 29.148h-15.341v-24.546h15.341z" fill="#ac1b22"/><path d="m900.734 113.792c0 4.603-3.897 7.824-8.131 7.824s-8.13-3.221-8.13-7.824h-2.608c0 5.231 4.171 9.558 9.204 10.309v5.032h3.068v-5.032c5.032-.736 9.204-5.062 9.204-10.309zm-8.13-13.807c-2.548 0-4.603 2.056-4.603 4.602v1.81l9.197.007.007-1.817c0-2.546-2.055-4.602-4.601-4.602zm-4.603 8.184v5.622c0 2.546 2.055 4.603 4.603 4.603 2.547 0 4.587-2.057 4.587-4.603l.008-5.614z" fill="#ac1b22"/><path d="m479.331 147.668v-5.37c0-.843-.69-1.534-1.534-1.534h-18.408c-.844 0-1.534.69-1.534 1.534v15.34c0 .844.69 1.534 1.534 1.534h18.408c.844 0 1.534-.69 1.534-1.534v-5.368l6.137 6.136v-16.875z" fill="#ac1b22"/><path clip-path="url(#a)" d="m894.536 7.852h-18.409c-2.547 0-4.602 2.056-4.602 4.602v27.614c0 2.546 2.055 4.602 4.602 4.602h18.409c2.547 0 4.602-2.056 4.602-4.602v-27.614c0-2.546-2.055-4.602-4.602-4.602zm-6.136 33.75h-6.138v-1.534h6.138zm8.054-4.602h-22.245v-24.546h22.245z" fill="#ac1b22"/><path clip-rule="evenodd" d="m610.919 200.009h57.872v33.615h-57.872z" fill="#898989" fill-rule="evenodd"/><path clip-rule="evenodd" d="m673.853 203.321-.004-4.043c-.094-.919-.561-1.642-1.49-1.672-.905-.03-1.81-.045-2.716-.048l-1.783.015c-1.642-.025-.742-.021-2.382.033-.929.03-1.396.752-1.49 1.672l-.014 16.634.001 5.89v10.058c-.005.879.003 1.76.007 2.64 0 .81.522 1.496 1.544 1.521 2.274.058 4.555.076 6.828.009.93-.026 1.396-.661 1.491-1.468l.012-12.663v-5.443z" fill="#6b6b6b" fill-rule="evenodd"/><path clip-rule="evenodd" d="m614.258 236.046c.848 0 1.533-.662 1.533-1.48v-35.527c0-.818-.686-1.48-1.533-1.48h-6.731c-.848 0-1.535.662-1.535 1.48v35.527c0 .818.688 1.48 1.535 1.48z" fill="#6b6b6b" fill-rule="evenodd"/><path clip-rule="evenodd" d="m559.964 92.619h33.614v87.61h-33.614z" fill="#898989" fill-rule="evenodd"/><path clip-rule="evenodd" d="m590.266 185.291 4.044-.003c.919-.095 1.642-.562 1.672-1.491.03-.905.045-1.811.049-2.717l-.017-1.782c.026-1.642.022-.744-.032-2.383-.03-.929-.753-1.396-1.672-1.49l-16.635-.014-5.89.001h-10.059c-.878-.004-1.759.003-2.639.007-.81 0-1.495.522-1.521 1.544-.058 2.274-.076 4.555-.01 6.829.027.928.662 1.396 1.47 1.49l12.662.013h5.442z" fill="#6b6b6b" fill-rule="evenodd"/><path clip-rule="evenodd" d="m557.542 99.58c0 1.08.662 1.954 1.48 1.954h35.527c.817 0 1.48-.875 1.48-1.954v-8.576c0-1.08-.663-1.954-1.48-1.954h-35.527c-.818 0-1.48.874-1.48 1.954z" fill="#6b6b6b" fill-rule="evenodd"/><path clip-rule="evenodd" d="m719.227 200.009h57.872v33.615h-57.872z" fill="#898989" fill-rule="evenodd"/><path clip-rule="evenodd" d="m778.289 200.009h57.871v33.615h-57.871z" fill="#898989" fill-rule="evenodd"/><path clip-rule="evenodd" d="m782.16 203.321-.004-4.043c-.094-.919-.562-1.642-1.49-1.672-.904-.03-1.812-.045-2.717-.048l-1.782.015c-1.642-.025-.745-.021-2.383.033-.93.03-1.396.752-1.492 1.672l-.012 16.634.001 5.89v10.058c-.005.879.004 1.76.007 2.64 0 .81.521 1.496 1.544 1.521 2.274.058 4.556.076 6.828.009.929-.026 1.396-.661 1.49-1.468l.014-12.663-.002-5.443z" fill="#6b6b6b" fill-rule="evenodd"/><path clip-rule="evenodd" d="m860.909 203.832-.003-4.042c-.095-.919-.562-1.641-1.491-1.671-.904-.03-1.81-.045-2.717-.048l-1.782.015c-1.641-.025-.743-.021-2.383.034-.929.03-1.396.752-1.49 1.671l-.014 16.635.001 5.89v10.057c-.004.879.005 1.76.008 2.641 0 .809.521 1.495 1.543 1.521 2.276.057 4.556.075 6.828.01.93-.027 1.397-.662 1.491-1.469l.014-12.663-.001-5.442z" fill="#6b6b6b" fill-rule="evenodd"/><path clip-rule="evenodd" d="m906.801 188.003 4.043-.003c.918-.094 1.641-.562 1.672-1.491.031-.904.046-1.81.048-2.716l-.015-1.782c.026-1.642.021-.744-.033-2.382-.031-.929-.754-1.396-1.672-1.491l-16.635-.014-5.891.001h-10.057c-.879-.004-1.761.003-2.639.006-.81 0-1.495.522-1.521 1.544-.058 2.275-.076 4.555-.011 6.829.027.929.662 1.396 1.47 1.491l12.662.013 5.442-.001z" fill="#6b6b6b" fill-rule="evenodd"/><path clip-rule="evenodd" d="m722.565 236.046c.848 0 1.533-.662 1.533-1.48v-35.527c0-.818-.686-1.48-1.533-1.48h-6.731c-.848 0-1.535.662-1.535 1.48v35.527c0 .818.688 1.48 1.535 1.48z" fill="#6b6b6b" fill-rule="evenodd"/><path clip-rule="evenodd" d="m598.206 131.595h21.772v33.903h-21.772z" fill="#898989" fill-rule="evenodd"/><path clip-rule="evenodd" d="m737.648 270.366c-.699-.989-1.49-1.926-2.379-2.769-1.995-1.887-4.48-3.291-7.495-3.72-.644-.1-1.318-.146-2.008-.146-9.32 0-13.77-4.272-14.253-13.085-.015-.246-.021-.491-.03-.744l.07-9.12.007-.744c-.016-9.565-.077-19.138-.007-28.702l-.04-14.106c.009-2.992.04-5.975.062-8.966 0-.285.007-.575.007-.86l-.053-9.004-.008-.89c-.047-6.428-1.267-12.633-3.89-18.493-1.726-3.858-3.214-7.11-6.281-10.24l-1.129-1.396c-1.043-1.005-1.234-1.327-2-2.109-6.098-6.206-13.471-10.148-21.907-12.219-3.92-.959-7.893-1.358-11.882-1.473-.422-.015-.844-.023-1.274-.023-.084-.007-.167-.007-.261-.007h-.145c-.345-.008-.698-.008-1.043-.008v.016c0 3.007-.015 5.799-.007 8.806.007 2.554.007 5.116.015 7.67 0 2.301.008 4.602.015 6.903 0 3.56.008 7.126.015 10.685.078 0 .162 0 .239.008h.146c.806.015 1.565.069 2.301.161 7.164.836 11.46 4.833 12.488 11.682v.92l-.017 9.028v.837c0 17.25 0 34.501.009 51.752l.008.767.029 4.487c.008 1.257-.076 3.152-.099 5.376-.031 3.115.053 6.88.652 10.463 2.085 12.51 7.96 22.557 18.938 29.269 8.966 5.484 18.893 7.334 29.248 7.44.728 0 1.426-.023 2.084-.069 3.177-.229 5.64-.981 7.541-2.07.89-.498 1.664-1.073 2.324-1.71 3.582-3.399 4.089-8.331 4.096-11.66.009-3.016-1.278-7.925-4.086-11.937z" fill="#898989" fill-rule="evenodd"/><path clip-rule="evenodd" d="m663.159 165.631c-12.192-.047-35.411-.098-47.603-.145-.014-5.72-.06-11.44-.031-17.159.031-5.58-.294-11.161-.057-16.742 11.17-.009 36.521-.013 47.69-.039v34.085z" fill="#898989" fill-rule="evenodd"/><path clip-rule="evenodd" d="m735.261 263.731c2.382 0 3.986.056 5.979.066 8.585.044 17.171.018 25.758.017-.024 11.296-.051 22.591-.076 33.888-10.533.063-21.067.128-31.602.192z" fill="#898989" fill-rule="evenodd"/><path clip-rule="evenodd" d="m737.644 267.068-.004-4.042c-.094-.919-.562-1.641-1.49-1.672-.904-.03-1.81-.045-2.716-.048l-1.783.015c-1.642-.025-.742-.021-2.382.033-.928.031-1.396.753-1.49 1.672l-.014 16.634.001 5.891v10.057c-.005.88.004 1.761.007 2.641 0 .81.522 1.495 1.544 1.521 2.273.058 4.555.076 6.828.01.929-.027 1.396-.661 1.491-1.469l.013-12.663v-5.442z" fill="#6b6b6b" fill-rule="evenodd"/><path clip-rule="evenodd" d="m779.445 267.068-.004-4.042c-.121-.919-.722-1.641-1.914-1.672-1.162-.03-2.326-.045-3.49-.048l-2.289.015c-2.109-.025-.956-.021-3.062.033-1.193.031-1.793.753-1.914 1.672l-.019 16.634.002 5.891v10.057c-.004.88.006 1.761.01 2.641 0 .81.671 1.495 1.983 1.521 2.922.058 5.852.076 8.771.01 1.192-.027 1.793-.661 1.914-1.469l.017-12.663-.002-5.442z" fill="#6b6b6b" fill-rule="evenodd"/><path clip-rule="evenodd" d="m662.901 167.524c.847 0 1.533-.663 1.533-1.48v-35.527c0-.817-.687-1.479-1.533-1.479h-6.733c-.846 0-1.534.662-1.534 1.479v35.527c0 .818.688 1.48 1.534 1.48z" fill="#6b6b6b" fill-rule="evenodd"/><path clip-rule="evenodd" d="m707.723 188.263 4.042-.003c.921-.095 1.643-.562 1.672-1.491.029-.905.046-1.812.048-2.718l-.015-1.781c.025-1.642.021-.744-.033-2.383-.029-.929-.751-1.396-1.672-1.491l-16.634-.013-5.89.001h-10.058c-.879-.004-1.76.004-2.642.007-.808 0-1.494.521-1.52 1.543-.058 2.276-.075 4.556-.01 6.828.027.929.661 1.396 1.468 1.491l12.664.014 5.442-.001z" fill="#6b6b6b" fill-rule="evenodd"/><path clip-rule="evenodd" d="m707.723 250.648 4.042-.003c.921-.094 1.643-.562 1.672-1.49.029-.905.046-1.812.048-2.718l-.015-1.781c.025-1.642.021-.744-.033-2.383-.029-.929-.751-1.396-1.672-1.491l-16.634-.014-5.89.002h-10.058c-.879-.005-1.76.004-2.642.007-.808 0-1.494.521-1.52 1.543-.058 2.276-.075 4.556-.01 6.829.027.928.661 1.396 1.468 1.491l12.664.013 5.442-.001z" fill="#6b6b6b" fill-rule="evenodd"/><path d="m860.449 9.26-4.486.039c-1.259.007-3.154-.076-5.377-.1-3.115-.031-6.881.046-10.463.645-12.511 2.094-22.559 7.969-29.27 18.945-5.485 8.966-7.334 18.892-7.44 29.247 0 .729.022 1.418.068 2.079.23 3.183.982 5.645 2.071 7.547.499.891 1.073 1.665 1.711 2.324 3.396 3.575 8.322 4.081 11.65 4.088 3.014.008 7.923-1.273 11.936-4.088.997-.69 1.934-1.48 2.769-2.37 1.896-1.995 3.299-4.479 3.729-7.494.099-.652.145-1.319.145-2.017 0-9.312 4.272-13.769 13.086-14.244.244-.015.49-.023.744-.031l9.135-31.924-.438-1.388zm-9.127 34.571 9.12.061.742.008" fill="#898989"/><g clip-rule="evenodd" fill-rule="evenodd"><path d="m837.492 67.606c0 2.38-.058 3.987-.067 5.979-.043 8.586-.017 60.098-.017 68.684-11.295-.025-22.591-.05-33.887-.076-.064-10.532-.129-63.993-.193-74.526z" fill="#898989"/><path d="m834.154 69.989 4.042-.003c.92-.094 1.642-.562 1.672-1.491.03-.904.045-1.81.048-2.716l-.015-1.782c.024-1.642.021-.744-.033-2.382-.03-.929-.752-1.396-1.672-1.491l-16.634-.014-5.891.001h-10.057c-.879-.004-1.761.003-2.642.006-.808 0-1.495.522-1.52 1.544-.057 2.275-.075 4.555-.009 6.829.026.929.66 1.396 1.468 1.491l12.663.013 5.442-.001z" fill="#6b6b6b"/><path d="m834.154 154.716 4.042-.003c.92-.121 1.642-.722 1.672-1.915.03-1.163.045-2.326.048-3.491l-.015-2.289c.024-2.108.021-.955-.033-3.061-.03-1.193-.752-1.793-1.672-1.915l-16.634-.018-5.891.001h-10.057c-.879-.005-1.761.005-2.642.009-.808 0-1.495.67-1.52 1.982-.057 2.923-.075 5.852-.009 8.772.026 1.192.66 1.793 1.468 1.915l12.663.017 5.442-.001z" fill="#6b6b6b"/><path d="m850.575 40.068.003 4.042c.094.919.562 1.642 1.49 1.672.905.03 1.812.045 2.719.048l1.78-.015c1.643.025.745.021 2.384-.033.929-.03 1.396-.752 1.491-1.672l.014-16.634-.003-5.89v-10.057c.005-.88-.004-1.761-.006-2.641 0-.809-.521-1.495-1.544-1.521-2.275-.058-4.556-.075-6.829-.009-.928.027-1.396.661-1.49 1.469l-.014 12.663.002 5.442z" fill="#6b6b6b"/><path d="m906.765 148.073 4.044-.003c.919-.122 1.641-.723 1.671-1.915.031-1.163.046-2.326.049-3.49l-.015-2.289c.025-2.109.021-.955-.034-3.061-.03-1.194-.752-1.793-1.671-1.915l-16.636-.018-5.89.001h-10.056c-.88-.005-1.761.005-2.642.009-.809 0-1.495.67-1.52 1.982-.058 2.923-.076 5.852-.009 8.772.025 1.192.659 1.793 1.468 1.915l12.661.017 5.442-.002z" fill="#6b6b6b"/><path d="m545.79 165.879c-9.875-.048-28.68-.097-38.555-.146-.009-5.719-.046-11.438-.022-17.158.022-5.581-.238-11.162-.046-16.743 9.046-.009 29.577-.012 38.623-.039z" fill="#898989"/><path d="m556.27 135.446-.003-4.043c-.094-.919-.562-1.641-1.491-1.672-.904-.03-1.809-.045-2.716-.048l-1.782.016c-1.642-.025-.743-.021-2.382.033-.929.031-1.396.753-1.491 1.672l-.014 16.634.002 5.891v10.057c-.005.879.003 1.76.007 2.641 0 .809.522 1.495 1.544 1.521 2.273.058 4.554.076 6.828.01.93-.027 1.396-.662 1.49-1.469l.013-12.663v-5.442z" fill="#6b6b6b"/><path d="m511.581 135.446-.005-4.043c-.121-.919-.722-1.641-1.914-1.672-1.163-.03-2.325-.045-3.491-.048l-2.289.016c-2.106-.025-.954-.021-3.061.033-1.192.031-1.793.753-1.914 1.672l-.018 16.634.003 5.891v10.056c-.007.879.004 1.76.009 2.641 0 .809.669 1.495 1.981 1.521 2.924.057 5.852.075 8.773.009 1.192-.027 1.793-.661 1.915-1.469l.016-12.663-.001-5.442z" fill="#6b6b6b"/><path d="m485.567 235.357 4.044-.003c.918-.095 1.64-.562 1.672-1.491.03-.905.045-1.81.049-2.717l-.017-1.782c.026-1.642.021-.744-.032-2.383-.032-.929-.754-1.396-1.672-1.491l-16.635-.013-5.891.001h-10.057c-.88-.004-1.761.004-2.641.007-.809 0-1.495.522-1.521 1.544-.059 2.275-.076 4.555-.01 6.828.026.929.661 1.396 1.47 1.491l12.662.013h5.441z" fill="#6b6b6b"/><path d="m485.532 185.839 4.044-.004c.918-.121 1.64-.722 1.672-1.915.029-1.162.044-2.325.047-3.491l-.015-2.289c.025-2.109.021-.955-.032-3.061-.032-1.193-.754-1.793-1.672-1.915l-16.637-.017-5.89.002h-10.056c-.88-.006-1.76.005-2.641.008-.81 0-1.495.67-1.521 1.983-.057 2.922-.074 5.851-.009 8.771.027 1.193.661 1.793 1.469 1.915l12.661.017 5.443-.001z" fill="#6b6b6b"/><path d="m608.264 172.229h58.815v19.646h-58.815z" fill="#898989"/><path d="m718.745 172.229h76.66v19.646h-76.66z" fill="#898989"/><path d="m802.028 249.626c.05-3.188.098-9.26.147-12.448 5.719-.004 11.438-.016 17.157-.007 5.581.007 11.162-.078 16.744-.016.009 2.921.011 9.551.038 12.471z" fill="#898989"/><path d="m604.048 171.055c-.847 0-1.534.384-1.534.857v20.587c0 .474.688.857 1.534.857h6.731c.847 0 1.535-.383 1.535-.857v-20.587c0-.473-.688-.857-1.535-.857z" fill="#6b6b6b"/><path d="m662.734 170.942c-.635 0-1.15.384-1.15.857v20.588c0 .474.516.857 1.15.857h5.049c.635 0 1.15-.383 1.15-.857v-20.588c0-.473-.516-.857-1.15-.857z" fill="#6b6b6b"/><path d="m718.882 171.055c-.635 0-1.15.384-1.15.857v20.587c0 .474.516.857 1.15.857h5.05c.634 0 1.151-.383 1.151-.857v-20.587c0-.473-.518-.857-1.151-.857z" fill="#6b6b6b"/><path d="m792.771 171.055c-.636 0-1.15.384-1.15.857v20.587c0 .474.515.857 1.15.857h5.051c.633 0 1.15-.383 1.15-.857v-20.587c0-.473-.518-.857-1.15-.857z" fill="#6b6b6b"/><path d="m530.149 227.364v-52.198h19.646v52.5s-.377 6.229 7.95 6.229l2.387-.021h24.979v19.646h-24.979s-29.983 2.349-29.983-27.349z" fill="#898989"/><path d="m550.97 175.303c0-.634-.384-1.15-.857-1.15h-20.587c-.473 0-.857.516-.857 1.15v5.05c0 .635.385 1.151.857 1.151h20.587c.474 0 .857-.516.857-1.151z" fill="#6b6b6b"/><path d="m499.853 181.815h19.646v44.062h-19.646z" fill="#898989"/><path d="m1011.978 10.591h14.729v63.729h-14.729z" fill="#898989"/><path d="m520.671 179.268c0-.634-.383-1.151-.856-1.151h-20.587c-.474 0-.856.517-.856 1.151v5.05c0 .634.383 1.15.856 1.15h20.587c.474 0 .856-.516.856-1.15z" fill="#6b6b6b"/><path d="m1029.259 73.062c0-.582-.345-1.054-.772-1.054h-18.548c-.428 0-.772.473-.772 1.054v4.625c0 .582.345 1.054.772 1.054h18.548c.428 0 .772-.473.772-1.054z" fill="#6b6b6b"/><path d="m1029.389 6.879c0-.582-.347-1.054-.771-1.054h-18.549c-.426 0-.771.473-.771 1.054v4.625c0 .581.345 1.053.771 1.053h18.549c.425 0 .771-.473.771-1.053z" fill="#6b6b6b"/><path d="m520.671 223.242c0-.634-.383-1.15-.856-1.15h-20.587c-.474 0-.856.517-.856 1.15v5.051c0 .634.383 1.151.856 1.151h20.587c.474 0 .856-.517.856-1.151z" fill="#6b6b6b"/><path d="m832.621 251.658 4.042-.004c.919-.121 1.642-.722 1.672-1.914.029-1.163.044-2.326.048-3.49l-.016-2.29c.025-2.109.021-.955-.032-3.061-.03-1.193-.753-1.793-1.672-1.915l-16.634-.017-5.891.002h-10.058c-.879-.005-1.76.005-2.641.009-.81 0-1.495.671-1.521 1.983-.057 2.923-.075 5.851-.008 8.772.026 1.192.66 1.793 1.468 1.915l12.664.017 5.442-.001z" fill="#6b6b6b"/><path d="m517.381 291.86.003 4.043c.094.919.562 1.641 1.49 1.672.905.03 1.811.045 2.718.048l1.78-.015c1.643.025.745.021 2.384-.033.929-.031 1.396-.753 1.491-1.672l.014-16.635-.002-5.891v-10.057c.005-.88-.004-1.761-.008-2.64 0-.81-.521-1.495-1.542-1.521-2.276-.059-4.557-.077-6.829-.011-.93.027-1.396.663-1.49 1.47l-.014 12.662.001 5.442z" fill="#6b6b6b"/><path d="m573.374 291.86.002 4.043c.096.919.562 1.641 1.491 1.672.905.03 1.811.045 2.718.048l1.781-.015c1.642.025.744.021 2.384-.033.928-.031 1.396-.753 1.49-1.672l.014-16.635-.001-5.891v-10.057c.003-.88-.005-1.761-.008-2.64 0-.81-.521-1.495-1.543-1.521-2.276-.059-4.556-.077-6.828-.011-.93.027-1.397.663-1.491 1.47l-.014 12.662.001 5.442z" fill="#6b6b6b"/><path d="m602.786 240.445-4.044.002c-.918.095-1.64.562-1.672 1.491-.029.905-.044 1.812-.047 2.718l.015 1.781c-.025 1.642-.021.744.032 2.383.032.929.754 1.396 1.672 1.491l16.635.014 5.892-.002h10.057c.88.005 1.761-.004 2.64-.007.809 0 1.495-.521 1.521-1.543.059-2.275.077-4.556.01-6.828-.025-.929-.662-1.396-1.469-1.491l-12.662-.014-5.442.001z" fill="#6b6b6b"/><path d="m411.775 238.697h31.319v14.104h-31.319z" fill="#898989"/><path d="m440.458 236.636c-.634 0-1.15.298-1.15.666v15.984c0 .368.517.666 1.15.666h5.05c.636 0 1.15-.298 1.15-.666v-15.984c0-.367-.515-.666-1.15-.666z" fill="#6b6b6b"/><path d="m407.093 236.636c-.634 0-1.151.298-1.151.666v15.984c0 .368.517.666 1.151.666h5.05c.635 0 1.15-.298 1.15-.666v-15.984c0-.367-.516-.666-1.15-.666z" fill="#6b6b6b"/><path d="m878.876 238.697h31.318v14.104h-31.318z" fill="#898989"/><path d="m907.559 236.636c-.635 0-1.15.298-1.15.666v15.984c0 .368.516.666 1.15.666h5.051c.633 0 1.15-.298 1.15-.666v-15.984c0-.367-.518-.666-1.15-.666z" fill="#6b6b6b"/><path d="m874.193 236.636c-.635 0-1.15.298-1.15.666v15.984c0 .368.516.666 1.15.666h5.05c.634 0 1.15-.298 1.15-.666v-15.984c0-.367-.517-.666-1.15-.666z" fill="#6b6b6b"/><path d="m277.792 241.164h67.311v14.104h-67.311z" fill="#898989"/><path d="m342.467 239.103c-.635 0-1.15.298-1.15.665v15.986c0 .367.515.665 1.15.665h5.05c.634 0 1.151-.298 1.151-.665v-15.986c0-.367-.517-.665-1.151-.665z" fill="#6b6b6b"/><path d="m272.992 239.103c-.535 0-.971.298-.971.665v15.986c0 .367.436.665.971.665h4.26c.536 0 .971-.298.971-.665v-15.986c0-.367-.435-.665-.971-.665z" fill="#6b6b6b"/><path d="m113.134 241.165h98.503v14.103h-98.503z" fill="#898989"/><path d="m211.32 239.104c-.412 0-.748.298-.748.665v15.985c0 .367.335.665.748.665h3.281c.412 0 .748-.298.748-.665v-15.985c0-.367-.336-.665-.748-.665z" fill="#6b6b6b"/><path d="m110.001 239.103c-.634 0-1.15.298-1.15.665v15.986c0 .367.516.665 1.15.665h5.05c.634 0 1.15-.298 1.15-.665v-15.986c0-.367-.516-.665-1.15-.665z" fill="#6b6b6b"/><path d="m301.588 266.76h19.935v28.447h-19.935z" fill="#898989"/><path d="m323.794 292.571c0-.635-.422-1.15-.941-1.15h-22.594c-.519 0-.94.516-.94 1.15v5.051c0 .634.421 1.15.94 1.15h22.594c.519 0 .941-.517.941-1.15z" fill="#6b6b6b"/><path d="m323.794 262.077c0-.635-.422-1.15-.941-1.15h-22.594c-.519 0-.94.516-.94 1.15v5.05c0 .635.421 1.15.94 1.15h22.594c.519 0 .941-.516.941-1.15z" fill="#6b6b6b"/><path d="m274.058 270.425h11.75v24.702h-11.75z" fill="#898989"/><path d="m284.891 267.613c-.402 0-.729.521-.729 1.165v27.997c0 .644.327 1.164.729 1.164h3.193c.402 0 .729-.521.729-1.164v-27.997c0-.644-.327-1.165-.729-1.165z" fill="#6b6b6b"/><path d="m269.375 267.613c-.635 0-1.15.521-1.15 1.165v27.997c0 .644.515 1.164 1.15 1.164h5.05c.634 0 1.151-.521 1.151-1.164v-27.997c0-.644-.517-1.165-1.151-1.165z" fill="#6b6b6b"/><path d="m336.206 270.48h11.751v25.19h-11.751z" fill="#898989"/><path d="m337.125 298.54c.401 0 .727-.532.727-1.188v-28.551c0-.656-.325-1.188-.727-1.188h-3.195c-.4 0-.729.532-.729 1.188v28.551c0 .656.328 1.188.729 1.188z" fill="#6b6b6b"/><path d="m352.641 298.54c.633 0 1.15-.532 1.15-1.188v-28.551c0-.656-.517-1.188-1.15-1.188h-5.051c-.635 0-1.15.532-1.15 1.188v28.551c0 .656.516 1.188 1.15 1.188z" fill="#6b6b6b"/><path d="m498.833 238.697h22.116v14.104h-22.116z" fill="#898989"/><path d="m518.312 236.636c-.634 0-1.151.298-1.151.666v15.984c0 .368.518.666 1.151.666h5.05c.635 0 1.15-.298 1.15-.666v-15.984c0-.367-.516-.666-1.15-.666z" fill="#6b6b6b"/><path d="m497.373 236.636c-.636 0-1.15.298-1.15.666v15.984c0 .368.515.666 1.15.666h5.05c.634 0 1.151-.298 1.151-.666v-15.984c0-.367-.518-.666-1.151-.666z" fill="#6b6b6b"/><path d="m555.864 232.7c-.636 0-1.15.384-1.15.857v20.587c0 .473.515.857 1.15.857h5.05c.634 0 1.15-.384 1.15-.857v-20.587c0-.473-.517-.857-1.15-.857z" fill="#6b6b6b"/><path d="m551.167 220.43c0-.634-.384-1.15-.857-1.15h-20.586c-.474 0-.857.516-.857 1.15v5.05c0 .635.384 1.151.857 1.151h20.586c.474 0 .857-.516.857-1.151z" fill="#6b6b6b"/><path d="m582.475 232.7c-.633 0-1.15.384-1.15.857v20.587c0 .473.518.857 1.15.857h5.051c.635 0 1.15-.384 1.15-.857v-20.587c0-.473-.516-.857-1.15-.857z" fill="#6b6b6b"/><path d="m646.865 242.272h19.646v56.967h-19.646z" fill="#898989"/><path d="m846.213 98.52h19.646v84.581h-19.646z" fill="#898989"/><path d="m667.685 242.41c0-.635-.384-1.151-.856-1.151h-20.589c-.474 0-.857.516-.857 1.151v5.05c0 .634.384 1.15.857 1.15h20.588c.473 0 .856-.517.856-1.15v-5.05z" fill="#6b6b6b"/><path d="m867.187 99.67c0-.635-.384-1.15-.856-1.15h-20.588c-.474 0-.856.515-.856 1.15v5.05c0 .633.383 1.15.856 1.15h20.588c.473 0 .856-.517.856-1.15z" fill="#6b6b6b"/><path d="m667.685 295.771c0-.415-.384-.752-.856-.752h-20.589c-.474 0-.857.337-.857.752v3.298c0 .414.384.751.857.751h20.588c.473 0 .856-.337.856-.751v-3.298z" fill="#6b6b6b"/><path d="m867.187 183.853c0-.415-.384-.751-.856-.751h-20.588c-.474 0-.856.337-.856.751v3.298c0 .415.383.751.856.751h20.588c.473 0 .856-.336.856-.751z" fill="#6b6b6b"/><path d="m643.03 9.86h26.933v32.178h-26.933z" fill="#898989"/><path d="m671.52 40.318c0-.415-.519-.751-1.16-.751h-27.844c-.641 0-1.158.337-1.158.751v3.298c0 .415.518.751 1.158.751h27.844c.642 0 1.16-.337 1.16-.751z" fill="#6b6b6b"/><path d="m763.78 125.98c-2.087-12.503-7.97-22.559-18.946-29.27-8.959-5.485-18.891-7.326-29.239-7.441-.729 0-1.427.023-2.087.069-3.183.23-5.637.982-7.539 2.071-.897.499-1.665 1.074-2.323 1.71-3.582 3.398-4.089 8.33-4.096 11.659-.008 3.014 1.272 7.916 4.087 11.927.699.998 1.488 1.94 2.379 2.784 1.993 1.879 4.472 3.275 7.485 3.713.645.1 1.319.146 2.018.146 9.312 0 13.769 4.272 14.243 13.085.016.246.024.491.032.744l.452.077 33.073 5.638.537-.575.468-.499c-.008-1.257.076-3.152.101-5.377.037-3.113-.047-6.879-.645-10.461z" fill="#898989"/><path d="m706.02 123.35c-2.38 0-3.986-.056-5.979-.067-8.585-.044-35.579-.017-44.166-.016.025-11.296.05-22.592.075-33.888 10.534-.063 39.478-.128 50.011-.192z" fill="#898989"/><path d="m703.637 120.013.004 4.042c.094.919.562 1.641 1.49 1.672.905.03 1.81.045 2.716.048l1.783-.015c1.642.025.743.021 2.382-.033.93-.031 1.396-.753 1.49-1.672l.014-16.635-.001-5.89v-10.057c.005-.879-.003-1.76-.007-2.64 0-.809-.522-1.496-1.544-1.521-2.273-.058-4.555-.076-6.828-.01-.929.027-1.396.662-1.49 1.469l-.013 12.663v5.442z" fill="#6b6b6b"/><path d="m643.427 120.013.004 4.042c.121.919.722 1.641 1.914 1.672 1.162.03 2.326.045 3.49.048l2.29-.015c2.108.025.955.021 3.061-.033 1.193-.031 1.793-.753 1.914-1.672l.019-16.635-.003-5.89v-10.057c.005-.879-.005-1.76-.009-2.64 0-.809-.671-1.496-1.983-1.521-2.923-.058-5.852-.076-8.771-.01-1.192.027-1.793.662-1.914 1.469l-.017 12.663.001 5.442z" fill="#6b6b6b"/><path d="m733.559 136.433-4.043.003c-.919.094-1.643.562-1.672 1.49-.029.905-.045 1.812-.048 2.718l.016 1.781c-.026 1.642-.022.744.032 2.383.029.929.753 1.396 1.672 1.491l16.634.014 5.892-.002h10.057c.878.005 1.759-.004 2.641-.007.809 0 1.495-.521 1.521-1.543.059-2.275.075-4.556.01-6.828-.027-.929-.662-1.396-1.469-1.491l-12.664-.013-5.442.001z" fill="#6b6b6b"/><path d="m760.934 247.63 4.043-.003c.918-.094 1.641-.562 1.672-1.49.029-.905.044-1.811.048-2.717l-.015-1.782c.024-1.642.021-.744-.033-2.383-.031-.929-.754-1.396-1.672-1.491l-16.636-.014-5.89.001h-10.058c-.879-.005-1.76.004-2.64.007-.809 0-1.495.522-1.52 1.544-.06 2.275-.077 4.555-.012 6.828.027.929.663 1.396 1.47 1.491l12.662.013 5.443-.001z" fill="#6b6b6b"/><path d="m952.992 83.294c-.23-1.549-.567-3.091-1.052-4.625-2.069-6.582-6.014-12.334-12.218-17.097-.782-.599-1.112-.744-2.11-1.565l-1.396-.875c-3.173-1.986-1.757-1.568-5.645-3.375-5.627-2.616-12.065-3-18.485-3.03l-3.559-.023-6.336-.031c-1.173.008-2.355.016-3.528.031-2.102.008-4.196.023-6.298.023l-14.104-.031c-8.133.054-16.255.022-18.679.007-.429 0-.682-.007-.721-.007l.031 27.046h43.283l6.358-.008h3.582c5.017.583 8.499 2.539 10.332 5.729.875 1.512 1.382 3.306 1.496 5.37.016.246.03.491.03.736 3.559.008 7.118.008 10.686.015 2.301.008 0-1.526 2.301-1.519 2.554 0 5.108 0 7.671.008 3.014 0 5.806-.008 8.821-.008v-.13c-.015-2.215-.131-4.432-.46-6.641z" fill="#898989"/><path d="m859.595 77.091-.004 3.24c-.094.738-.562 1.317-1.49 1.34-.905.024-1.811.037-2.716.039l-1.783-.012c-1.642.021-.742.017-2.382-.027-.93-.023-1.396-.602-1.49-1.34l-.014-13.335.001-4.723v-8.063c-.005-.705.003-1.412.006-2.118 0-.649.523-1.199 1.545-1.219 2.273-.046 4.555-.061 6.828-.008.929.022 1.396.53 1.49 1.177l.013 10.153v4.363z" fill="#6b6b6b"/><path d="m908.538 76.681-.002 3.241c-.095.737-.562 1.316-1.49 1.34-.906.024-1.812.036-2.719.038l-1.78-.012c-1.643.021-.745.017-2.384-.026-.929-.024-1.396-.603-1.491-1.34l-.014-13.336.001-4.723v-8.063c-.003-.705.005-1.412.009-2.118 0-.649.521-1.199 1.542-1.219 2.276-.046 4.558-.06 6.829-.007.93.021 1.396.53 1.49 1.177l.014 10.152-.001 4.364z" fill="#6b6b6b"/><path d="m948.521 136.059c4.361 0 16.643.044 20.293.053 15.729.036 27.592.013 43.321.013-.044 9.056-.092 18.112-.138 27.169-19.298.051-44.07.103-63.367.154z" fill="#898989"/><path d="m979.31 138.734-.003-3.241c-.094-.737-.562-1.316-1.49-1.34-.905-.024-1.811-.036-2.717-.039l-1.782.012c-1.642-.02-.743-.017-2.382.027-.93.024-1.396.604-1.491 1.34l-.013 13.337.001 4.723v8.063c-.005.706.003 1.411.005 2.117 0 .648.524 1.198 1.546 1.219 2.273.046 4.554.06 6.828.007.929-.021 1.396-.53 1.49-1.177l.013-10.152v-4.364z" fill="#6b6b6b"/><path d="m952.364 127.292 3.745-.003c.852-.094 1.521-.562 1.55-1.491.026-.904.042-1.81.043-2.716l-.014-1.782c.024-1.642.02-.743-.029-2.382-.028-.929-.698-1.396-1.55-1.491l-15.411-.014-5.457.002h-9.318c-.815-.004-1.629.003-2.445.005-.751 0-1.386.523-1.409 1.545-.055 2.274-.069 4.554-.009 6.828.023.929.613 1.396 1.36 1.491l11.733.012h5.04z" fill="#6b6b6b"/><path d="m952.364 99.613 3.745-.003c.852-.094 1.521-.562 1.55-1.491.026-.904.042-1.81.043-2.716l-.014-1.783c.024-1.642.02-.743-.029-2.382-.028-.929-.698-1.396-1.55-1.491l-15.411-.014-5.457.002h-9.318c-.815-.005-1.629.003-2.445.005-.751 0-1.386.523-1.409 1.544-.055 2.274-.069 4.555-.009 6.829.023.929.613 1.396 1.36 1.491l11.733.012h5.04z" fill="#6b6b6b"/><path d="m1024.582 138.734-.003-3.241c-.121-.737-.722-1.316-1.915-1.34-1.161-.024-2.325-.036-3.489-.039l-2.289.012c-2.109-.02-.957-.017-3.061.027-1.194.024-1.793.604-1.916 1.34l-.017 13.337.001 4.723v8.063c-.005.706.006 1.411.009 2.117 0 .648.672 1.198 1.984 1.219 2.922.046 5.851.06 8.771.007 1.192-.021 1.793-.53 1.914-1.177l.016-10.152-.001-4.364z" fill="#6b6b6b"/><path d="m330.184 102.893-.03-3.912-27.085-.253v8.622c0 2.454-.022 4.916-.046 7.371 0 .345-.008.683-.008 1.027l.046 3.728 27.123.031.007-3.766v-12.272z" fill="#898989"/><path d="m350.097 52.444-7.702.039-.76.008c-5.492.038-10.8.982-15.808 2.992-3.299 1.327-6.083 2.477-8.759 4.832l-1.197.867c-.851.806-1.127.952-1.795 1.534-5.308 4.694-8.674 10.363-10.447 16.852-.858 3.145-1.181 11.145-1.266 15.786-.022.82-.03 1.534-.03 2.102 2.584-.008 4.962.008 7.547 0 2.186 0 4.364-.008 6.558-.008 1.964-.008 3.936-.008 5.898-.015 3.046 0 4.902-.069 7.948-.077.007-.628-.008-1.304-.024-2.001-.191-6.796-.92-16.253 11.346-16.253h.782l7.724.007z" fill="#898989"/><path d="m333.099 96.535c0-.651-.566-1.181-1.266-1.181h-30.374c-.698 0-1.265.53-1.265 1.181v5.176c0 .65.566 1.18 1.265 1.18h30.374c.7 0 1.266-.529 1.266-1.18z" fill="#6b6b6b"/><path d="m350.829 55.416-.003-3.108c-.081-.707-.479-1.262-1.273-1.285-.774-.023-1.549-.035-2.324-.037l-1.523.012c-1.404-.021-.637-.017-2.038.025-.794.023-1.194.579-1.275 1.285l-.01 12.789v4.53 7.732c-.003.676.004 1.354.008 2.031 0 .622.445 1.149 1.318 1.168 1.946.045 3.895.059 5.838.008.794-.021 1.194-.508 1.275-1.129l.01-9.737v-4.186z" fill="#6b6b6b"/><path d="m404.165 55.416-.003-3.108c-.081-.707-.48-1.262-1.275-1.285-.773-.023-1.547-.035-2.323-.037l-1.522.012c-1.404-.021-.637-.017-2.038.025-.794.023-1.194.579-1.275 1.285l-.012 12.789.001 4.53v7.732c-.002.676.005 1.354.006 2.031 0 .622.446 1.149 1.319 1.168 1.946.045 3.896.059 5.838.008.794-.021 1.194-.508 1.275-1.129l.01-9.737-.002-4.186z" fill="#6b6b6b"/><path d="m333.099 115.902c0-.651-.566-1.181-1.266-1.181h-30.374c-.698 0-1.265.53-1.265 1.181v5.176c0 .651.566 1.179 1.265 1.179h30.374c.7 0 1.266-.528 1.266-1.179z" fill="#6b6b6b"/><path d="m484.319 55.416-.002-3.108c-.082-.707-.481-1.262-1.275-1.285-.773-.023-1.547-.035-2.324-.037l-1.521.012c-1.403-.021-.637-.017-2.037.025-.794.023-1.194.579-1.275 1.285l-.012 12.789.001 4.53v7.732c-.003.676.005 1.354.006 2.031 0 .622.447 1.149 1.32 1.168 1.945.045 3.896.059 5.838.008.794-.021 1.194-.508 1.275-1.129l.011-9.737-.002-4.186z" fill="#6b6b6b"/><path d="m554.354 55.416-.005-3.108c-.108-.707-.657-1.262-1.748-1.285-1.061-.023-2.124-.035-3.188-.037l-2.09.012c-1.928-.021-.872-.017-2.796.025-1.089.023-1.639.579-1.748 1.285l-.017 12.789.003 4.53v7.732c-.007.676.005 1.354.007 2.031 0 .622.613 1.149 1.812 1.168 2.67.045 5.344.059 8.011.008 1.09-.021 1.637-.508 1.75-1.129l.015-9.737-.003-4.186z" fill="#6b6b6b"/><path d="m788.977 54.254c-1.081.008-2.154.008-3.229.008l-14.104-.03c-.975.007-1.948.007-2.915.015-5.562.023-10.793.016-13.814 0h-.054c-1.573-.007-2.539-.015-2.616-.015v.015l.032 27.031h43.283l.015-27.069c-2.202.015-4.405.03-6.598.045z" fill="#898989"/><path d="m754.913 54.247h-2.67c-3.751.008-7.5.016-11.251.016l-10.418-.008-9.862-.008-19.553-.015c-17.558.038-35.113.03-45.462.015-5.567 0-9.043-.007-9.304-.015l.075 27.045h122.212l.047-27.031v-.038c-4.61.009-9.212.024-13.814.039z" fill="#898989"/><path d="m655.705 78.215-.004 3.241c-.117.738-.691 1.317-1.839 1.34-1.116.024-2.233.037-3.352.039l-2.198-.012c-2.027.021-.918.017-2.94-.027-1.147-.023-1.723-.603-1.839-1.34l-.017-13.335.002-4.723v-8.062c-.007-.705.005-1.412.007-2.118 0-.648.645-1.199 1.905-1.219 2.807-.045 5.62-.06 8.425-.007 1.146.021 1.723.529 1.84 1.177l.015 10.153v4.363z" fill="#6b6b6b"/><path d="m730.587 78.215-.003 3.241c-.095.738-.562 1.317-1.491 1.34-.904.024-1.812.037-2.717.039l-1.78-.012c-1.643.021-.745.017-2.385-.027-.929-.023-1.396-.603-1.49-1.34l-.014-13.335.001-4.723v-8.062c-.004-.705.005-1.412.008-2.118 0-.648.521-1.199 1.543-1.219 2.276-.045 4.556-.06 6.829-.007.928.021 1.396.529 1.49 1.177l.014 10.153-.001 4.363z" fill="#6b6b6b"/><path d="m798.854 78.215-.003 3.241c-.095.738-.562 1.317-1.491 1.34-.904.024-1.812.037-2.718.039l-1.781-.012c-1.643.021-.744.017-2.384-.027-.929-.023-1.396-.603-1.49-1.34l-.013-13.335.001-4.723v-8.062c-.004-.705.005-1.412.007-2.118 0-.648.521-1.199 1.544-1.219 2.275-.045 4.556-.06 6.828-.007.929.021 1.396.529 1.491 1.177l.014 10.153-.003 4.363z" fill="#6b6b6b"/><path d="m785.794 10.056c-3.751.01-7.503.019-11.253.019l-10.416-.009-9.865-.01-19.551-.019c-17.557.047-35.115.037-45.462.019-5.569 0-9.042-.009-9.304-.019l.076 33.092h104.065v1.906z" fill="#898989"/><path d="m689.254 39.382-.003 3.966c-.116.902-.693 1.611-1.839 1.64-1.117.03-2.234.044-3.353.047l-2.199-.015c-2.025.025-.917.021-2.938-.032-1.146-.029-1.724-.737-1.84-1.64l-.017-16.318.002-5.778v-9.866c-.005-.862.004-1.727.009-2.591 0-.793.644-1.466 1.904-1.492 2.807-.056 5.62-.073 8.426-.008 1.146.026 1.722.648 1.837 1.44l.018 12.422-.003 5.34z" fill="#6b6b6b"/><path d="m790.982 39.382-.004 3.966c-.094.902-.561 1.611-1.49 1.64-.904.03-1.81.044-2.716.047l-1.783-.015c-1.642.025-.742.021-2.382-.032-.93-.029-1.396-.737-1.49-1.64l-.014-16.318.001-5.778v-9.866c-.005-.862.004-1.727.007-2.591 0-.793.522-1.466 1.544-1.492 2.273-.056 4.555-.073 6.828-.008.93.026 1.396.648 1.491 1.44l.012 12.422v5.34z" fill="#6b6b6b"/><path d="m630.486 10.056c-3.751.01-7.503.019-11.253.019l-10.416-.009-9.865-.01-19.551-.019c-17.557.047-35.115.037-45.462.019-5.569 0-9.044-.009-9.305-.019l.077 33.092h104.065v1.906z" fill="#898989"/><path d="m533.946 39.382-.003 3.966c-.116.902-.693 1.611-1.84 1.64-1.116.03-2.233.044-3.352.047l-2.199-.015c-2.025.025-.917.021-2.939-.032-1.146-.029-1.723-.737-1.839-1.64l-.017-16.318.001-5.778v-9.866c-.004-.862.005-1.727.01-2.591 0-.793.644-1.466 1.904-1.492 2.807-.056 5.62-.073 8.424-.008 1.147.026 1.724.648 1.839 1.44l.018 12.422-.003 5.34z" fill="#6b6b6b"/><path d="m635.675 39.382-.004 3.966c-.094.902-.562 1.611-1.49 1.64-.904.03-1.811.044-2.716.047l-1.783-.015c-1.642.025-.742.021-2.382-.032-.93-.029-1.396-.737-1.49-1.64l-.014-16.318.001-5.778v-9.866c-.005-.862.003-1.727.006-2.591 0-.793.523-1.466 1.545-1.492 2.273-.056 4.555-.073 6.828-.008.929.026 1.396.648 1.491 1.44l.012 12.422v5.34z" fill="#6b6b6b"/><path d="m409.688 39.382-.004 3.966c-.116.902-.693 1.611-1.839 1.64-1.117.03-2.234.044-3.352.047l-2.2-.015c-2.025.025-.917.021-2.939-.032-1.146-.029-1.723-.737-1.84-1.64l-.017-16.318.002-5.778v-9.866c-.005-.862.004-1.727.009-2.591 0-.793.644-1.466 1.904-1.492 2.808-.056 5.621-.073 8.425-.008 1.146.026 1.724.648 1.839 1.44l.016 12.422-.001 5.34z" fill="#6b6b6b"/><path d="m946.497 44.168c-11.867-.049-21.993-.098-33.862-.146-.012-5.719-.056-11.439-.028-17.159.028-5.581-.286-11.161-.054-16.742 10.872-.009 23.074-.013 33.944-.039z" fill="#898989"/><path d="m920.416 13.734-.004-4.042c-.121-.919-.721-1.642-1.914-1.672-1.162-.03-2.326-.045-3.49-.048l-2.289.015c-2.109-.025-.957-.021-3.062.033-1.193.031-1.792.753-1.913 1.672l-.019 16.634.001 5.891v10.056c-.004.879.006 1.76.01 2.641 0 .809.671 1.495 1.983 1.521 2.922.057 5.852.075 8.771.009 1.192-.027 1.793-.661 1.914-1.468l.017-12.663-.002-5.443z" fill="#6b6b6b"/><path d="m49.986 264.629h50.548v33.611h-50.548z" fill="#898989"/><path d="m54.78 289.649c0-2.485-.007-4.97-.007-7.463-.007-2.24-.007-4.479-.015-6.72-.008-3.459-.017-6.926-.024-10.393-.406-.008-.804-.016-1.195-.046-.054 0-.108-.009-.154-.016-.238-.007-.475-.03-.706-.054-2.001-.199-3.782-.652-5.315-1.365-3.866-1.787-6.228-5.178-6.934-10.056l.007-3.345v-.145l.008-6.19h-.176l-32.522.016h-.008l.007 1.258.023 4.917.007.138.015 3.314c.046 6.259 1.197 12.295 3.667 17.995 1.626 3.759 3.038 6.927 5.93 9.972l1.065 1.356c.982.976 1.159 1.297 1.879 2.049 5.761 6.044 12.709 9.88 20.664 11.896 2.094.529 4.203.882 6.32 1.104 1.78.191 3.575.291 5.362.338.23.007.468.016.706.016h.154c.414.015.829.015 1.242.015-.007-2.937.008-5.652 0-8.591z" fill="#898989"/><path d="m7.529 177.816h32.522v35.26h-32.522z" fill="#898989"/><path d="m7.529 210.076h32.522v35.2h-32.522z" fill="#898989"/><path d="m37.285 250.339 4.043-.003c.918-.094 1.64-.562 1.672-1.491.029-.905.045-1.811.047-2.717l-.015-1.782c.025-1.642.021-.744-.033-2.383-.032-.929-.754-1.396-1.672-1.491l-16.635-.013-5.891.001h-10.055c-.88-.004-1.761.004-2.64.007-.809 0-1.495.522-1.52 1.544-.059 2.275-.077 4.555-.011 6.828.027.929.662 1.396 1.469 1.491l12.663.013 5.442-.001z" fill="#6b6b6b"/><path d="m4.546 182.514c0 .848.662 1.534 1.479 1.534h35.528c.818 0 1.479-.686 1.479-1.534v-6.731c0-.848-.662-1.534-1.479-1.534h-35.527c-.818 0-1.479.687-1.479 1.534v6.731z" fill="#6b6b6b"/><path d="m92.567 267.705.003-4.042c.121-.919.722-1.642 1.915-1.672 1.163-.03 2.327-.044 3.491-.048l2.289.015c2.109-.025.956-.021 3.061.033 1.194.031 1.793.753 1.915 1.672l.018 16.634-.001 5.891v10.057c.004.88-.006 1.761-.009 2.641 0 .809-.671 1.495-1.983 1.521-2.923.058-5.852.075-8.772.01-1.192-.027-1.793-.661-1.915-1.469l-.017-12.663.002-5.442z" fill="#6b6b6b"/><path d="m57.423 300.457c.848 0 1.535-.662 1.535-1.48v-35.527c0-.818-.687-1.48-1.535-1.48h-6.731c-.848 0-1.534.662-1.534 1.48v35.527c0 .818.687 1.48 1.534 1.48z" fill="#6b6b6b"/><path d="m771.992 97.056h22.737v64.771h-22.737z" fill="#898989"/><path d="m796.088 94.508c0-.634-.443-1.15-.992-1.15h-23.828c-.548 0-.99.516-.99 1.15v5.051c0 .634.442 1.15.99 1.15h23.828c.549 0 .992-.516.992-1.15z" fill="#6b6b6b"/><path d="m796.088 159.193c0-.635-.443-1.15-.992-1.15h-23.828c-.548 0-.99.516-.99 1.15v5.05c0 .635.442 1.151.99 1.151h23.828c.549 0 .992-.516.992-1.151z" fill="#6b6b6b"/><path d="m49.465 43.208h59.166v33.612h-59.166z" fill="#898989"/><path d="m54.259 43.208c-.414 0-.829 0-1.242.016h-.154c-.238 0-.475.007-.706.015-1.787.046-3.582.146-5.362.338-2.117.222-4.225.575-6.32 1.104-7.955 2.017-14.903 5.853-20.664 11.896-.722.752-.897 1.074-1.88 2.048l-1.065 1.357c-2.894 3.045-4.304 6.213-5.93 9.972-2.469 5.699-3.62 11.736-3.666 17.995l-.015 3.314-.007.138-.022 4.917-.008 1.258h.008l32.522.016h.175l-.007-6.19v-.145l-.007-3.345c.706-4.879 3.068-8.269 6.934-10.056 1.534-.713 3.313-1.166 5.315-1.365.23-.023.468-.046.706-.054.046-.008.101-.016.154-.016.391-.031.79-.039 1.196-.046.007-3.467.017-6.934.024-10.393.007-2.24.007-4.479.015-6.72 0-2.493.008-4.978.008-7.463.006-2.938-.01-5.653-.002-8.591z" fill="#898989"/><path d="m7.008 82.144h32.522v35.261h-32.522z" fill="#898989"/><path d="m36.763 91.11 4.044.003c.918.095 1.64.562 1.671 1.491.03.905.045 1.811.048 2.717l-.015 1.782c.025 1.642.021.744-.033 2.383-.031.929-.753 1.396-1.671 1.49l-16.635.014-5.891-.001h-10.056c-.88.004-1.76-.003-2.64-.007-.809 0-1.495-.522-1.521-1.543-.059-2.275-.076-4.555-.01-6.828.026-.929.662-1.397 1.47-1.491l12.662-.013 5.442.001z" fill="#6b6b6b"/><path d="m5.505 120.971c-.818 0-1.48-.686-1.48-1.533v-6.731c0-.848.662-1.534 1.48-1.534h35.528c.818 0 1.48.687 1.48 1.534v6.731c0 .848-.662 1.533-1.48 1.533" fill="#6b6b6b"/><path d="m100.664 73.743.003 4.042c.122.919.723 1.642 1.915 1.672 1.163.03 2.327.044 3.49.048l2.289-.015c2.109.025.956.021 3.06-.033 1.194-.031 1.793-.753 1.914-1.672l.018-16.634-.001-5.891v-10.055c.004-.88-.006-1.761-.009-2.641 0-.809-.671-1.495-1.983-1.521-2.923-.058-5.852-.075-8.771-.009-1.192.026-1.793.661-1.915 1.469l-.016 12.663.001 5.442z" fill="#6b6b6b"/><path d="m56.902 40.992c.848 0 1.534.662 1.534 1.48v35.527c0 .818-.687 1.48-1.534 1.48h-6.731c-.848 0-1.535-.662-1.535-1.48v-35.527c0-.818.687-1.48 1.535-1.48z" fill="#6b6b6b"/><path d="m1001.726 69.643.265 9.507c1.146 7.665 6.386 11.759 15.166 11.855.006 3.561.014 7.122.021 10.683.005 2.301.01 4.602.014 6.903.005 2.558.011 5.114.015 7.671.005 3.017-.011 5.805-.007 8.823-4.897-.013-9.791-.329-14.606-1.511-8.436-2.071-15.809-6.011-21.91-12.221-.764-.779-.952-1.106-1.996-2.106l-1.13-1.398c-3.066-3.128-4.56-6.385-6.283-10.243-2.62-5.86-3.843-12.065-3.889-18.493l-.061-9.896z" fill="#898989"/><path d="m1024.584 95.161-.003-4.043c-.094-.918-.562-1.64-1.49-1.671-.905-.03-1.812-.045-2.718-.048l-1.781.015c-1.643-.025-.745-.021-2.384.033-.929.031-1.396.753-1.491 1.671l-.013 16.636.002 5.89v10.056c-.005.88.003 1.761.007 2.64 0 .809.521 1.495 1.543 1.521 2.275.059 4.557.076 6.828.01.93-.027 1.396-.662 1.49-1.469l.014-12.663-.001-5.442z" fill="#6b6b6b"/><path d="m967.483 65.829-.052-9.578c-1.148-7.665-6.387-11.759-15.168-11.855-.006-3.561-.013-7.122-.021-10.683-.005-2.301-.009-4.603-.014-6.903-.004-2.558-.01-5.114-.015-7.67-.005-3.018.012-5.805.007-8.823 4.898.012 9.792.329 14.606 1.512 8.437 2.071 15.809 6.011 21.91 12.221.765.778.954 1.106 1.998 2.105l1.129 1.397c3.066 3.129 4.559 6.385 6.283 10.243 2.621 5.861 3.843 12.066 3.888 18.493l.062 9.896z" fill="#898989"/><path d="m946.05 40.241.003 4.043c.095.918.562 1.64 1.491 1.672.904.03 1.812.045 2.717.047l1.782-.015c1.641.025.744.021 2.383-.033.929-.032 1.396-.754 1.491-1.672l.014-16.635-.002-5.891v-10.055c.004-.879-.005-1.761-.007-2.64 0-.81-.521-1.495-1.544-1.521-2.275-.059-4.556-.077-6.829-.011-.928.027-1.396.663-1.49 1.469l-.014 12.663.002 5.442z" fill="#6b6b6b"/><path d="m971.696 62.802-4.044.003c-.918.094-1.64.562-1.672 1.491-.029.905-.045 1.811-.048 2.718l.016 1.781c-.025 1.642-.021.745.032 2.384.032.929.754 1.396 1.672 1.491l16.635.014 5.892-.002h10.057c.88.005 1.76-.004 2.64-.007.809 0 1.495-.521 1.521-1.543.059-2.276.077-4.556.01-6.829-.026-.928-.662-1.396-1.469-1.491l-12.662-.013-5.443.001z" fill="#6b6b6b"/><path d="m61.269 85.454h33.615v35.378h-33.615z" fill="#898989"/><path d="m64.408 92.19-4.043-.002c-.919-.09-1.641-.536-1.671-1.42-.03-.862-.045-1.726-.048-2.589l.015-1.697c-.025-1.565-.021-.709.034-2.271.031-.886.752-1.33 1.671-1.42l16.634-.014 5.891.001h10.057c.879-.003 1.76.005 2.641.007.809 0 1.495.499 1.52 1.472.058 2.167.076 4.339.01 6.505-.027.884-.662 1.33-1.469 1.419l-12.663.013-5.443-.001z" fill="#6b6b6b"/><path d="m99.281 165.879c-11.869-.048-34.471-.097-46.341-.146-.011-5.719-.055-11.438-.027-17.158.027-5.581-.287-11.162-.055-16.743 10.874-.009 35.55-.012 46.423-.039z" fill="#898989"/><path d="m100.652 135.41-.003-4.043c-.094-.919-.562-1.641-1.49-1.672-.905-.029-1.811-.045-2.717-.048l-1.782.015c-1.642-.025-.744-.021-2.383.033-.929.031-1.396.753-1.491 1.672l-.013 16.634.001 5.891v10.057c-.005.879.004 1.76.007 2.64 0 .809.522 1.495 1.543 1.521 2.275.058 4.555.076 6.829.01.929-.027 1.396-.662 1.491-1.469l.012-12.663v-5.443z" fill="#6b6b6b"/><path d="m60.723 135.446-.004-4.043c-.121-.919-.722-1.641-1.915-1.672-1.162-.03-2.326-.045-3.491-.048l-2.289.016c-2.108-.025-.955-.021-3.061.033-1.193.031-1.793.753-1.915 1.672l-.017 16.634.002 5.891v10.056c-.006.879.005 1.76.008 2.641 0 .809.67 1.495 1.983 1.521 2.923.057 5.852.075 8.772.009 1.193-.027 1.793-.661 1.915-1.469l.017-12.663-.001-5.442z" fill="#6b6b6b"/><path d="m91.57 122.625 4.043-.002c.919-.07 1.641-.417 1.672-1.106.03-.671.045-1.343.048-2.015l-.016-1.321c.026-1.218.021-.551-.033-1.768-.031-.689-.752-1.036-1.672-1.105l-16.634-.01-5.89.001h-10.056c-.879-.003-1.76.003-2.641.005-.809 0-1.495.387-1.521 1.145-.058 1.687-.075 3.378-.01 5.064.027.689.662 1.036 1.469 1.105l12.663.009h5.442z" fill="#6b6b6b"/><path d="m61.269 174.942h33.615v76.797h-33.615z" fill="#898989"/><path d="m64.408 181.678-4.043-.003c-.919-.09-1.641-.535-1.671-1.42-.03-.861-.045-1.725-.048-2.589l.015-1.697c-.025-1.564-.021-.709.034-2.27.031-.885.752-1.33 1.671-1.42l16.634-.014 5.891.002h10.057c.879-.004 1.76.004 2.641.006.809 0 1.495.498 1.52 1.471.058 2.168.076 4.34.01 6.506-.027.884-.662 1.33-1.469 1.42l-12.663.012-5.443-.001z" fill="#6b6b6b"/><path d="m91.57 256.6 4.043-.002c.919-.07 1.641-.417 1.672-1.106.03-.671.045-1.343.048-2.015l-.016-1.321c.026-1.218.021-.552-.033-1.767-.031-.689-.752-1.036-1.672-1.105l-16.634-.011-5.89.002h-10.056c-.879-.003-1.76.003-2.641.004-.809 0-1.495.388-1.521 1.145-.058 1.688-.075 3.378-.01 5.064.027.689.662 1.035 1.469 1.105l12.663.009h5.442z" fill="#6b6b6b"/><path d="m9.452 11.691h52.194v19.646h-52.194z" fill="#898989"/><path d="m5.855 10.519c-.722 0-1.309.383-1.309.857v20.587c0 .473.586.857 1.309.857h5.744c.723 0 1.309-.384 1.309-.857v-20.588c0-.474-.586-.857-1.309-.857h-5.744z" fill="#6b6b6b"/><path d="m58.804 10.519c-.542 0-.981.383-.981.857v20.587c0 .473.439.857.981.857h4.308c.542 0 .981-.384.981-.857v-20.588c0-.474-.44-.857-.981-.857h-4.308z" fill="#6b6b6b"/><path d="m671.52 9.047c0-.546-.519-.991-1.16-.991h-27.844c-.641 0-1.158.445-1.158.991v4.352c0 .546.518.991 1.158.991h27.844c.642 0 1.16-.445 1.16-.991z" fill="#6b6b6b"/><path d="m161.326 11.265h14.104v28.894h-14.104z" fill="#898989"/><path d="m177.036 37.523c0-.634-.298-1.15-.665-1.15h-15.985c-.367 0-.665.516-.665 1.15v5.05c0 .635.298 1.151.665 1.151h15.985c.367 0 .665-.516.665-1.151z" fill="#6b6b6b"/><path d="m177.491 7.225c0-.634-.298-1.15-.666-1.15h-15.984c-.367 0-.666.516-.666 1.15v5.05c0 .634.298 1.151.666 1.151h15.984c.368 0 .666-.517.666-1.151z" fill="#6b6b6b"/><path d="m161.782 92.06h14.103v28.894h-14.103z" fill="#898989"/><path d="m177.491 118.317c0-.634-.298-1.15-.666-1.15h-15.984c-.367 0-.666.516-.666 1.15v5.05c0 .635.298 1.15.666 1.15h15.984c.368 0 .666-.516.666-1.15z" fill="#6b6b6b"/><path d="m177.491 88.02c0-.634-.298-1.15-.666-1.15h-15.984c-.367 0-.666.516-.666 1.15v5.05c0 .634.298 1.151.666 1.151h15.984c.368 0 .666-.517.666-1.151z" fill="#6b6b6b"/><path d="m353.461 88.792c-7.148-.002-12.934-.005-15.227-.005.022 11.133.045 22.267.066 33.4 2.611.019 8.23.037 15.156.054z" fill="#898989"/><path d="m293.632 88.793c-26.834-.001-48.553-.004-57.157-.004.082 11.133.166 22.266.248 33.4 9.798.019 30.893.036 56.89.053z" fill="#898989"/><path d="m467.665 88.712c-33-.002-59.513-.005-70.093-.005.1 11.161.027 33.399.027 33.399 12.048.018 38.076.12 70.043.137z" fill="#898989"/><path d="m442.172 155.432c.001-24.829.006-44.922.006-52.884-11.297.076-22.594.152-33.893.228-.021 9.065-.036 28.586-.055 52.639z" fill="#898989"/><path d="m466.632 122.962c2.38 0 3.986-.056 5.979-.067 8.585-.044 17.171-.017 25.756-.016-.023-11.296-.049-22.592-.074-33.888-10.533-.063-21.068-.128-31.602-.192z" fill="#898989"/><path d="m469.014 119.625-.003 4.042c-.095.919-.562 1.641-1.491 1.672-.904.029-1.81.044-2.716.047l-1.782-.015c-1.643.025-.743.021-2.382-.033-.93-.031-1.396-.753-1.491-1.672l-.014-16.635.002-5.89v-10.056c-.005-.879.003-1.76.006-2.64 0-.809.523-1.495 1.545-1.521 2.273-.058 4.554-.076 6.828-.01.929.027 1.396.661 1.491 1.469l.012 12.663v5.442z" fill="#6b6b6b"/><path d="m510.816 119.625-.004 4.042c-.121.919-.722 1.641-1.914 1.672-1.163.029-2.327.044-3.492.047l-2.288-.015c-2.109.025-.956.021-3.061-.033-1.193-.031-1.793-.753-1.915-1.672l-.018-16.635.001-5.89v-10.056c-.005-.879.007-1.76.009-2.64 0-.809.672-1.495 1.984-1.521 2.923-.058 5.851-.076 8.771-.01 1.192.027 1.793.661 1.914 1.469l.017 12.663-.001 5.442z" fill="#6b6b6b"/><path d="m225.818 91.578.003-4.047c.134-.921.799-1.644 2.117-1.673 1.287-.03 2.573-.045 3.861-.048l2.532.015c2.333-.025 1.057-.021 3.385.033 1.32.03 1.983.752 2.118 1.673l.019 16.651-.001 5.896v10.066c.005.88-.006 1.762-.01 2.643 0 .811-.742 1.497-2.192 1.522-3.233.058-6.472.075-9.702.01-1.318-.027-1.982-.662-2.117-1.471l-.018-12.675.001-5.447z" fill="#6b6b6b"/><path d="m290.479 91.577.002-4.047c.068-.92.407-1.644 1.08-1.673.656-.03 1.312-.046 1.969-.048l1.291.015c1.189-.025.538-.021 1.726.034.673.029 1.011.752 1.081 1.673l.009 16.65v5.897 10.067c.002.881-.003 1.762-.006 2.644 0 .809-.377 1.496-1.118 1.521-1.648.058-3.3.076-4.947.01-.672-.026-1.011-.662-1.08-1.47l-.009-12.676v-5.448z" fill="#6b6b6b"/><path d="m350.72 91.577.001-4.047c.038-.92.228-1.643.605-1.673.367-.03.735-.046 1.104-.048l.723.015c.667-.025.303-.021.968.033.377.03.568.753.605 1.673l.005 16.651v5.897 10.066c.002.881-.003 1.763-.003 2.644 0 .81-.212 1.496-.627 1.521-.924.058-1.85.076-2.773.01-.377-.027-.568-.663-.607-1.471l-.005-12.675v-5.448z" fill="#6b6b6b"/><path d="m397.516 91.577.002-4.047c.068-.92.407-1.644 1.08-1.673.656-.03 1.312-.046 1.969-.048l1.292.015c1.189-.025.538-.021 1.726.034.673.029 1.011.752 1.081 1.673l.009 16.65v5.897 10.067c.001.881-.003 1.762-.006 2.644 0 .809-.377 1.496-1.118 1.521-1.649.058-3.3.076-4.947.01-.672-.026-1.011-.662-1.08-1.47l-.009-12.676v-5.448z" fill="#6b6b6b"/><path d="m335.989 91.577.003-4.047c.067-.92.406-1.644 1.079-1.673.656-.03 1.312-.046 1.968-.048l1.291.015c1.19-.025.54-.021 1.726.034.674.029 1.011.752 1.08 1.673l.011 16.65-.001 5.897v10.067c.002.881-.003 1.762-.005 2.644 0 .809-.379 1.496-1.119 1.521-1.647.058-3.3.076-4.947.01-.672-.026-1.011-.662-1.08-1.47l-.009-12.676.002-5.448z" fill="#6b6b6b"/><path d="m438.727 143.696 4.046.001c.922.069 1.644.408 1.674 1.08.03.656.046 1.312.048 1.969l-.016 1.291c.025 1.189.021.539-.032 1.726-.03.673-.752 1.011-1.674 1.08l-16.649.01-5.896-.001h-10.068c-.88.003-1.761-.003-2.642-.005-.811 0-1.497-.378-1.522-1.118-.059-1.649-.077-3.301-.01-4.947.026-.672.662-1.011 1.471-1.08l12.676-.009 5.447.001z" fill="#6b6b6b"/><path d="m1017.811 246.851c-2.492 0-4.979.007-7.463.016-2.24 0-4.479.007-6.72.007-3.467.009-6.934.016-10.401.024-.007.713-.045 1.396-.114 2.056-.683 7.041-4.603 11.259-11.421 12.25l-3.345-.009h-.139l-6.19-.008v.184l.008 32.53 1.267-.007 4.909-.03h.138l3.321-.024c6.251-.037 12.287-1.196 17.996-3.666 3.749-1.626 6.918-3.038 9.964-5.929l1.364-1.06c.966-.989 1.288-1.166 2.047-1.886 6.046-5.753 9.871-12.71 11.891-20.664.974-3.859 1.342-7.764 1.441-11.682.022-.698.03-1.397.03-2.095-2.938 0-5.653-.015-8.583-.007z" fill="#898989"/><path d="m978.211 264.889-.004-3.916c-.093-.892-.546-1.591-1.452-1.621-.878-.028-1.762-.043-2.643-.046l-1.734.015c-1.599-.025-.724-.021-2.318.032-.904.03-1.359.729-1.451 1.621l-.014 16.116.002 5.708v9.744c-.004.852.005 1.706.007 2.559 0 .783.508 1.448 1.502 1.474 2.214.056 4.433.074 6.645.01.904-.025 1.359-.642 1.451-1.424l.012-12.269v-5.274z" fill="#6b6b6b"/><path d="m993.067 178.669h33.615v65.358h-33.615z" fill="#898989"/><path d="m996.38 173.608-4.041.003c-.921.094-1.643.562-1.672 1.491-.03.905-.046 1.81-.048 2.716l.015 1.783c-.025 1.642-.021.744.033 2.382.029.929.751 1.396 1.672 1.49l16.634.014 5.89-.001h10.057c.88.004 1.761-.003 2.642-.006.81 0 1.495-.523 1.521-1.544.057-2.274.074-4.555.009-6.828-.027-.929-.661-1.397-1.468-1.491l-12.664-.012h-5.443z" fill="#6b6b6b"/><path d="m1029.105 240.689c0-.848-.662-1.534-1.48-1.534h-35.526c-.817 0-1.479.686-1.479 1.534v6.731c0 .848.662 1.534 1.479 1.534h35.526c.818 0 1.48-.686 1.48-1.534z" fill="#6b6b6b"/><path d="m852.158 261.368h121.131v33.615h-121.131z" fill="#898989"/><path d="m978.351 264.68-.003-4.043c-.094-.918-.562-1.64-1.49-1.672-.905-.029-1.812-.045-2.718-.048l-1.781.015c-1.642-.026-.744-.021-2.383.033-.93.032-1.396.754-1.491 1.672l-.014 16.635.002 5.891v10.057c-.005.88.004 1.761.008 2.64 0 .81.521 1.495 1.542 1.521 2.276.059 4.556.076 6.829.011.928-.027 1.396-.662 1.49-1.47l.014-12.662-.001-5.442z" fill="#6b6b6b"/><path d="m907.272 264.68-.003-4.043c-.094-.918-.562-1.64-1.49-1.672-.904-.029-1.812-.045-2.717-.048l-1.782.015c-1.642-.026-.745-.021-2.384.033-.929.032-1.396.754-1.49 1.672l-.014 16.635.002 5.891v10.057c-.005.88.005 1.761.007 2.64 0 .81.521 1.495 1.544 1.521 2.275.059 4.556.076 6.828.011.929-.027 1.396-.662 1.491-1.47l.012-12.662-.001-5.442z" fill="#6b6b6b"/><path d="m859.12 297.404c1.081 0 1.953-.662 1.953-1.479v-35.528c0-.818-.872-1.48-1.953-1.48h-8.575c-1.08 0-1.955.662-1.955 1.48v35.528c0 .817.875 1.479 1.955 1.479z" fill="#6b6b6b"/><path d="m952.646 232.487 4.045-.003c.918-.095 1.64-.562 1.671-1.491.03-.905.045-1.811.049-2.717l-.016-1.782c.025-1.642.021-.744-.033-2.383-.031-.929-.753-1.396-1.671-1.491l-16.636-.013-5.891.001h-10.057c-.879-.004-1.76.003-2.64.006-.81 0-1.495.522-1.521 1.544-.059 2.275-.077 4.555-.011 6.828.027.929.662 1.396 1.47 1.491l12.662.013 5.441-.001z" fill="#6b6b6b"/><path d="m952.646 181.862 4.045-.002c.918-.094 1.64-.562 1.671-1.491.03-.905.045-1.811.049-2.717l-.016-1.782c.025-1.642.021-.744-.033-2.383-.031-.929-.753-1.396-1.671-1.491l-16.636-.013-5.891.001h-10.057c-.879-.004-1.76.004-2.64.007-.81 0-1.495.522-1.521 1.544-.059 2.275-.077 4.555-.011 6.828.027.929.662 1.396 1.47 1.491l12.662.013h5.441z" fill="#6b6b6b"/><path d="m967.467 179.156h14.104v67.312h-14.104z" fill="#898989"/><path d="m983.632 243.831c0-.634-.299-1.151-.665-1.151h-15.985c-.367 0-.665.517-.665 1.151v5.051c0 .634.298 1.151.665 1.151h15.985c.366 0 .665-.517.665-1.151z" fill="#6b6b6b"/><path d="m983.632 174.356c0-.535-.299-.971-.665-.971h-15.985c-.367 0-.665.436-.665.971v4.261c0 .536.298.971.665.971h15.985c.366 0 .665-.435.665-.971z" fill="#6b6b6b"/></g></svg>